<?xml version="1.0" encoding="UTF-8"?>
<svg xmlns="http://www.w3.org/2000/svg" xmlns:xlink="http://www.w3.org/1999/xlink" width="432pt" height="288pt" viewBox="0 0 432 288">
<defs>
<g>
<g id="glyph-0-0">
<path d="M 4.46875 0 L 3.414062 0 L 3.414062 -6.71875 C 3.160156 -6.476562 2.828125 -6.234375 2.417969 -5.992188 C 2.003906 -5.75 1.632812 -5.570312 1.304688 -5.449219 L 1.304688 -6.46875 C 1.894531 -6.746094 2.410156 -7.082031 2.851562 -7.476562 C 3.292969 -7.871094 3.605469 -8.253906 3.789062 -8.625 L 4.46875 -8.625 Z M 4.46875 0 "/>
</g>
<g id="glyph-0-1">
<path d="M 5.96875 -6.484375 L 4.921875 -6.40625 C 4.828125 -6.816406 4.695312 -7.117188 4.523438 -7.304688 C 4.238281 -7.605469 3.886719 -7.757812 3.46875 -7.757812 C 3.132812 -7.757812 2.835938 -7.664062 2.585938 -7.476562 C 2.25 -7.234375 1.988281 -6.878906 1.796875 -6.414062 C 1.605469 -5.949219 1.507812 -5.289062 1.5 -4.429688 C 1.753906 -4.816406 2.0625 -5.101562 2.429688 -5.289062 C 2.796875 -5.476562 3.183594 -5.570312 3.585938 -5.570312 C 4.289062 -5.570312 4.886719 -5.3125 5.382812 -4.796875 C 5.875 -4.277344 6.125 -3.609375 6.125 -2.789062 C 6.125 -2.25 6.007812 -1.75 5.773438 -1.285156 C 5.542969 -0.824219 5.222656 -0.46875 4.816406 -0.222656 C 4.410156 0.0234375 3.949219 0.148438 3.433594 0.148438 C 2.554688 0.148438 1.835938 -0.175781 1.28125 -0.824219 C 0.726562 -1.46875 0.453125 -2.535156 0.453125 -4.019531 C 0.453125 -5.679688 0.757812 -6.886719 1.371094 -7.640625 C 1.90625 -8.296875 2.625 -8.625 3.53125 -8.625 C 4.207031 -8.625 4.761719 -8.433594 5.195312 -8.054688 C 5.625 -7.675781 5.882812 -7.15625 5.96875 -6.484375 M 1.664062 -2.78125 C 1.664062 -2.421875 1.742188 -2.070312 1.894531 -1.742188 C 2.050781 -1.40625 2.265625 -1.15625 2.542969 -0.980469 C 2.820312 -0.808594 3.109375 -0.71875 3.414062 -0.71875 C 3.859375 -0.71875 4.242188 -0.898438 4.5625 -1.257812 C 4.882812 -1.617188 5.042969 -2.105469 5.046875 -2.726562 C 5.042969 -3.316406 4.886719 -3.785156 4.570312 -4.128906 C 4.253906 -4.46875 3.855469 -4.640625 3.375 -4.640625 C 2.898438 -4.640625 2.492188 -4.46875 2.164062 -4.128906 C 1.828125 -3.785156 1.664062 -3.335938 1.664062 -2.78125 Z M 1.664062 -2.78125 "/>
</g>
<g id="glyph-0-2">
<path d="M 1.089844 0 L 1.089844 -1.203125 L 2.289062 -1.203125 L 2.289062 0 Z M 1.089844 0 "/>
</g>
<g id="glyph-0-3">
<path d="M 0.570312 -7.464844 L 0.570312 -8.476562 L 6.128906 -8.476562 L 6.128906 -7.65625 C 5.582031 -7.074219 5.039062 -6.300781 4.503906 -5.335938 C 3.964844 -4.371094 3.550781 -3.382812 3.257812 -2.359375 C 3.046875 -1.640625 2.914062 -0.855469 2.851562 0 L 1.769531 0 C 1.78125 -0.675781 1.914062 -1.492188 2.167969 -2.449219 C 2.421875 -3.40625 2.785156 -4.328125 3.261719 -5.21875 C 3.734375 -6.105469 4.238281 -6.855469 4.773438 -7.464844 Z M 0.570312 -7.464844 "/>
</g>
<g id="glyph-0-4">
<path d="M 0.65625 -1.984375 L 1.671875 -2.078125 C 1.753906 -1.601562 1.917969 -1.257812 2.164062 -1.042969 C 2.402344 -0.828125 2.714844 -0.71875 3.09375 -0.71875 C 3.417969 -0.71875 3.703125 -0.792969 3.945312 -0.945312 C 4.191406 -1.089844 4.390625 -1.289062 4.546875 -1.539062 C 4.703125 -1.785156 4.832031 -2.121094 4.9375 -2.542969 C 5.042969 -2.964844 5.097656 -3.394531 5.097656 -3.832031 C 5.097656 -3.878906 5.09375 -3.949219 5.09375 -4.042969 C 4.882812 -3.707031 4.59375 -3.433594 4.226562 -3.226562 C 3.863281 -3.015625 3.464844 -2.914062 3.039062 -2.914062 C 2.328125 -2.914062 1.726562 -3.171875 1.234375 -3.6875 C 0.742188 -4.203125 0.5 -4.882812 0.5 -5.726562 C 0.5 -6.59375 0.753906 -7.296875 1.269531 -7.828125 C 1.78125 -8.359375 2.425781 -8.625 3.199219 -8.625 C 3.757812 -8.625 4.269531 -8.472656 4.730469 -8.171875 C 5.195312 -7.871094 5.546875 -7.445312 5.785156 -6.886719 C 6.027344 -6.332031 6.148438 -5.523438 6.148438 -4.46875 C 6.148438 -3.371094 6.027344 -2.5 5.789062 -1.847656 C 5.550781 -1.199219 5.195312 -0.703125 4.726562 -0.363281 C 4.253906 -0.0234375 3.703125 0.148438 3.070312 0.148438 C 2.398438 0.148438 1.847656 -0.0390625 1.421875 -0.414062 C 0.996094 -0.785156 0.742188 -1.308594 0.65625 -1.984375 M 4.976562 -5.777344 C 4.972656 -6.382812 4.8125 -6.863281 4.492188 -7.21875 C 4.167969 -7.574219 3.78125 -7.75 3.328125 -7.75 C 2.859375 -7.75 2.449219 -7.558594 2.101562 -7.179688 C 1.753906 -6.792969 1.582031 -6.296875 1.582031 -5.6875 C 1.582031 -5.140625 1.746094 -4.699219 2.078125 -4.355469 C 2.40625 -4.015625 2.8125 -3.84375 3.296875 -3.84375 C 3.785156 -3.84375 4.1875 -4.015625 4.503906 -4.355469 C 4.816406 -4.699219 4.972656 -5.171875 4.976562 -5.777344 Z M 4.976562 -5.777344 "/>
</g>
<g id="glyph-0-5">
<path d="M 0.695312 -6.527344 C 0.695312 -7.140625 0.851562 -7.660156 1.160156 -8.09375 C 1.46875 -8.519531 1.914062 -8.734375 2.5 -8.734375 C 3.039062 -8.734375 3.488281 -8.542969 3.839844 -8.160156 C 4.195312 -7.773438 4.371094 -7.207031 4.371094 -6.460938 C 4.371094 -5.734375 4.191406 -5.175781 3.835938 -4.785156 C 3.476562 -4.390625 3.035156 -4.195312 2.515625 -4.195312 C 1.992188 -4.195312 1.5625 -4.390625 1.214844 -4.773438 C 0.871094 -5.164062 0.695312 -5.746094 0.695312 -6.527344 M 2.53125 -8.007812 C 2.269531 -8.007812 2.050781 -7.894531 1.878906 -7.671875 C 1.703125 -7.441406 1.617188 -7.027344 1.617188 -6.421875 C 1.617188 -5.871094 1.703125 -5.484375 1.882812 -5.257812 C 2.054688 -5.035156 2.273438 -4.921875 2.53125 -4.921875 C 2.796875 -4.921875 3.015625 -5.035156 3.191406 -5.261719 C 3.363281 -5.488281 3.453125 -5.902344 3.453125 -6.503906 C 3.453125 -7.058594 3.363281 -7.449219 3.1875 -7.671875 C 3.011719 -7.898438 2.792969 -8.007812 2.53125 -8.007812 M 2.539062 0.316406 L 7.234375 -8.734375 L 8.09375 -8.734375 L 3.410156 0.316406 L 2.539062 0.316406 M 6.25 -2.015625 C 6.25 -2.632812 6.40625 -3.15625 6.714844 -3.582031 C 7.023438 -4.011719 7.472656 -4.226562 8.0625 -4.226562 C 8.601562 -4.226562 9.046875 -4.03125 9.402344 -3.648438 C 9.753906 -3.261719 9.929688 -2.695312 9.929688 -1.953125 C 9.929688 -1.226562 9.753906 -0.664062 9.394531 -0.273438 C 9.039062 0.121094 8.59375 0.316406 8.070312 0.316406 C 7.546875 0.316406 7.117188 0.121094 6.769531 -0.265625 C 6.425781 -0.65625 6.25 -1.238281 6.25 -2.015625 M 8.09375 -3.5 C 7.824219 -3.5 7.605469 -3.382812 7.433594 -3.15625 C 7.257812 -2.929688 7.171875 -2.515625 7.171875 -1.910156 C 7.171875 -1.363281 7.257812 -0.976562 7.4375 -0.75 C 7.609375 -0.523438 7.828125 -0.410156 8.085938 -0.410156 C 8.355469 -0.410156 8.578125 -0.523438 8.75 -0.75 C 8.925781 -0.976562 9.011719 -1.390625 9.011719 -1.992188 C 9.011719 -2.546875 8.921875 -2.9375 8.75 -3.160156 C 8.570312 -3.386719 8.351562 -3.5 8.09375 -3.5 Z M 8.09375 -3.5 "/>
</g>
<g id="glyph-0-6">
<path d="M 0.503906 -2.265625 L 1.558594 -2.40625 C 1.679688 -1.8125 1.886719 -1.378906 2.175781 -1.117188 C 2.46875 -0.851562 2.820312 -0.71875 3.242188 -0.71875 C 3.734375 -0.71875 4.15625 -0.890625 4.496094 -1.234375 C 4.839844 -1.578125 5.007812 -2.003906 5.007812 -2.515625 C 5.007812 -2.996094 4.851562 -3.398438 4.535156 -3.710938 C 4.21875 -4.027344 3.816406 -4.183594 3.328125 -4.183594 C 3.128906 -4.183594 2.878906 -4.144531 2.585938 -4.066406 L 2.703125 -4.992188 C 2.773438 -4.984375 2.828125 -4.980469 2.871094 -4.980469 C 3.320312 -4.980469 3.722656 -5.097656 4.085938 -5.332031 C 4.441406 -5.566406 4.621094 -5.925781 4.625 -6.414062 C 4.621094 -6.804688 4.492188 -7.121094 4.230469 -7.375 C 3.96875 -7.628906 3.628906 -7.757812 3.21875 -7.757812 C 2.804688 -7.757812 2.464844 -7.628906 2.191406 -7.371094 C 1.917969 -7.113281 1.742188 -6.726562 1.664062 -6.210938 L 0.609375 -6.398438 C 0.738281 -7.105469 1.03125 -7.652344 1.488281 -8.042969 C 1.945312 -8.429688 2.515625 -8.625 3.195312 -8.625 C 3.664062 -8.625 4.09375 -8.523438 4.488281 -8.324219 C 4.882812 -8.121094 5.183594 -7.847656 5.394531 -7.5 C 5.601562 -7.152344 5.707031 -6.78125 5.707031 -6.390625 C 5.707031 -6.019531 5.609375 -5.683594 5.40625 -5.378906 C 5.210938 -5.074219 4.914062 -4.832031 4.523438 -4.652344 C 5.03125 -4.535156 5.425781 -4.292969 5.707031 -3.921875 C 5.988281 -3.554688 6.128906 -3.089844 6.128906 -2.539062 C 6.128906 -1.789062 5.855469 -1.152344 5.308594 -0.628906 C 4.761719 -0.109375 4.070312 0.152344 3.234375 0.152344 C 2.480469 0.152344 1.855469 -0.0742188 1.355469 -0.523438 C 0.859375 -0.96875 0.574219 -1.554688 0.503906 -2.265625 Z M 0.503906 -2.265625 "/>
</g>
<g id="glyph-0-7">
<path d="M 3.878906 0 L 3.878906 -2.054688 L 0.152344 -2.054688 L 0.152344 -3.023438 L 4.070312 -8.589844 L 4.933594 -8.589844 L 4.933594 -3.023438 L 6.09375 -3.023438 L 6.09375 -2.054688 L 4.933594 -2.054688 L 4.933594 0 L 3.878906 0 M 3.878906 -3.023438 L 3.878906 -6.898438 L 1.1875 -3.023438 Z M 3.878906 -3.023438 "/>
</g>
<g id="glyph-0-8">
<path d="M 2.121094 -4.65625 C 1.683594 -4.816406 1.359375 -5.046875 1.148438 -5.34375 C 0.9375 -5.640625 0.832031 -5.996094 0.832031 -6.410156 C 0.832031 -7.035156 1.058594 -7.558594 1.507812 -7.984375 C 1.953125 -8.410156 2.550781 -8.625 3.296875 -8.625 C 4.046875 -8.625 4.652344 -8.40625 5.109375 -7.972656 C 5.566406 -7.535156 5.796875 -7.003906 5.796875 -6.382812 C 5.796875 -5.980469 5.691406 -5.636719 5.480469 -5.339844 C 5.273438 -5.046875 4.953125 -4.816406 4.53125 -4.65625 C 5.054688 -4.484375 5.457031 -4.207031 5.734375 -3.828125 C 6.007812 -3.441406 6.148438 -2.984375 6.148438 -2.453125 C 6.148438 -1.71875 5.886719 -1.101562 5.367188 -0.601562 C 4.847656 -0.105469 4.164062 0.148438 3.316406 0.148438 C 2.46875 0.148438 1.785156 -0.105469 1.265625 -0.605469 C 0.746094 -1.109375 0.484375 -1.734375 0.484375 -2.484375 C 0.484375 -3.042969 0.628906 -3.511719 0.910156 -3.886719 C 1.195312 -4.265625 1.597656 -4.519531 2.121094 -4.65625 M 1.910156 -6.445312 C 1.910156 -6.039062 2.039062 -5.707031 2.304688 -5.449219 C 2.5625 -5.191406 2.902344 -5.0625 3.320312 -5.0625 C 3.726562 -5.0625 4.0625 -5.191406 4.320312 -5.445312 C 4.582031 -5.703125 4.710938 -6.015625 4.710938 -6.386719 C 4.710938 -6.773438 4.578125 -7.097656 4.308594 -7.363281 C 4.042969 -7.625 3.710938 -7.757812 3.3125 -7.757812 C 2.90625 -7.757812 2.574219 -7.628906 2.308594 -7.371094 C 2.042969 -7.113281 1.910156 -6.804688 1.910156 -6.445312 M 1.570312 -2.476562 C 1.570312 -2.175781 1.640625 -1.886719 1.785156 -1.605469 C 1.925781 -1.324219 2.140625 -1.105469 2.421875 -0.953125 C 2.703125 -0.796875 3.003906 -0.71875 3.328125 -0.71875 C 3.832031 -0.71875 4.25 -0.882812 4.578125 -1.207031 C 4.90625 -1.53125 5.070312 -1.941406 5.070312 -2.445312 C 5.070312 -2.949219 4.898438 -3.371094 4.5625 -3.703125 C 4.222656 -4.035156 3.800781 -4.203125 3.292969 -4.203125 C 2.796875 -4.203125 2.386719 -4.039062 2.058594 -3.710938 C 1.734375 -3.382812 1.570312 -2.96875 1.570312 -2.476562 Z M 1.570312 -2.476562 "/>
</g>
<g id="glyph-0-9">
<path d="M 0.5 -2.25 L 1.605469 -2.34375 C 1.6875 -1.804688 1.878906 -1.398438 2.175781 -1.128906 C 2.476562 -0.855469 2.835938 -0.71875 3.257812 -0.71875 C 3.765625 -0.71875 4.195312 -0.910156 4.546875 -1.296875 C 4.898438 -1.675781 5.074219 -2.1875 5.074219 -2.820312 C 5.074219 -3.417969 4.90625 -3.894531 4.566406 -4.242188 C 4.230469 -4.589844 3.785156 -4.761719 3.242188 -4.765625 C 2.898438 -4.761719 2.59375 -4.6875 2.320312 -4.53125 C 2.046875 -4.378906 1.832031 -4.179688 1.675781 -3.929688 L 0.6875 -4.0625 L 1.515625 -8.472656 L 5.789062 -8.472656 L 5.789062 -7.464844 L 2.359375 -7.464844 L 1.898438 -5.15625 C 2.414062 -5.515625 2.953125 -5.695312 3.523438 -5.695312 C 4.273438 -5.695312 4.90625 -5.433594 5.421875 -4.914062 C 5.9375 -4.394531 6.195312 -3.726562 6.195312 -2.914062 C 6.195312 -2.132812 5.964844 -1.460938 5.515625 -0.898438 C 4.960938 -0.203125 4.210938 0.148438 3.257812 0.148438 C 2.476562 0.148438 1.839844 -0.0742188 1.34375 -0.507812 C 0.851562 -0.945312 0.570312 -1.527344 0.5 -2.25 Z M 0.5 -2.25 "/>
</g>
<g id="glyph-0-10">
<path d="M 0.5 -4.234375 C 0.5 -5.25 0.601562 -6.070312 0.8125 -6.6875 C 1.019531 -7.308594 1.332031 -7.785156 1.742188 -8.121094 C 2.15625 -8.457031 2.671875 -8.625 3.296875 -8.625 C 3.757812 -8.625 4.164062 -8.53125 4.511719 -8.347656 C 4.859375 -8.160156 5.144531 -7.894531 5.375 -7.542969 C 5.597656 -7.195312 5.777344 -6.769531 5.90625 -6.265625 C 6.035156 -5.765625 6.101562 -5.085938 6.101562 -4.234375 C 6.101562 -3.226562 5.996094 -2.414062 5.789062 -1.796875 C 5.582031 -1.175781 5.273438 -0.699219 4.859375 -0.359375 C 4.449219 -0.0234375 3.925781 0.148438 3.296875 0.148438 C 2.46875 0.148438 1.820312 -0.152344 1.347656 -0.742188 C 0.78125 -1.460938 0.5 -2.621094 0.5 -4.234375 M 1.582031 -4.234375 C 1.582031 -2.824219 1.746094 -1.886719 2.078125 -1.421875 C 2.40625 -0.953125 2.8125 -0.71875 3.296875 -0.71875 C 3.78125 -0.71875 4.191406 -0.953125 4.519531 -1.421875 C 4.851562 -1.890625 5.015625 -2.828125 5.015625 -4.234375 C 5.015625 -5.648438 4.851562 -6.589844 4.519531 -7.054688 C 4.191406 -7.519531 3.78125 -7.75 3.289062 -7.75 C 2.800781 -7.75 2.414062 -7.546875 2.125 -7.136719 C 1.765625 -6.613281 1.582031 -5.644531 1.582031 -4.234375 Z M 1.582031 -4.234375 "/>
</g>
<g id="glyph-0-11">
<path d="M 6.039062 -1.015625 L 6.039062 0 L 0.363281 0 C 0.355469 -0.253906 0.394531 -0.5 0.484375 -0.734375 C 0.628906 -1.117188 0.863281 -1.5 1.179688 -1.875 C 1.5 -2.25 1.957031 -2.683594 2.5625 -3.175781 C 3.492188 -3.941406 4.125 -4.546875 4.453125 -4.996094 C 4.78125 -5.441406 4.945312 -5.867188 4.945312 -6.265625 C 4.945312 -6.679688 4.796875 -7.035156 4.496094 -7.320312 C 4.199219 -7.609375 3.808594 -7.75 3.328125 -7.75 C 2.820312 -7.75 2.414062 -7.601562 2.109375 -7.296875 C 1.804688 -6.992188 1.648438 -6.570312 1.648438 -6.03125 L 0.5625 -6.140625 C 0.636719 -6.949219 0.917969 -7.566406 1.398438 -7.988281 C 1.882812 -8.414062 2.535156 -8.625 3.351562 -8.625 C 4.175781 -8.625 4.828125 -8.398438 5.308594 -7.9375 C 5.789062 -7.484375 6.03125 -6.914062 6.03125 -6.242188 C 6.03125 -5.894531 5.957031 -5.558594 5.820312 -5.226562 C 5.675781 -4.894531 5.445312 -4.542969 5.117188 -4.179688 C 4.792969 -3.808594 4.25 -3.304688 3.492188 -2.664062 C 2.859375 -2.132812 2.453125 -1.773438 2.273438 -1.585938 C 2.09375 -1.394531 1.945312 -1.203125 1.828125 -1.015625 Z M 6.039062 -1.015625 "/>
</g>
<g id="glyph-0-12">
<path d="M 0.578125 -4.183594 C 0.578125 -5.609375 0.960938 -6.726562 1.726562 -7.53125 C 2.492188 -8.339844 3.480469 -8.742188 4.695312 -8.742188 C 5.484375 -8.742188 6.199219 -8.550781 6.835938 -8.171875 C 7.472656 -7.792969 7.960938 -7.265625 8.292969 -6.589844 C 8.628906 -5.910156 8.796875 -5.140625 8.796875 -4.28125 C 8.796875 -3.410156 8.617188 -2.632812 8.265625 -1.945312 C 7.914062 -1.257812 7.417969 -0.738281 6.773438 -0.382812 C 6.128906 -0.03125 5.433594 0.148438 4.6875 0.148438 C 3.878906 0.148438 3.15625 -0.0507812 2.519531 -0.4375 C 1.882812 -0.828125 1.398438 -1.363281 1.070312 -2.039062 C 0.742188 -2.714844 0.578125 -3.429688 0.578125 -4.183594 M 1.75 -4.164062 C 1.75 -3.128906 2.03125 -2.316406 2.585938 -1.71875 C 3.144531 -1.125 3.839844 -0.828125 4.679688 -0.828125 C 5.539062 -0.828125 6.242188 -1.125 6.792969 -1.726562 C 7.347656 -2.328125 7.625 -3.183594 7.625 -4.289062 C 7.625 -4.988281 7.503906 -5.597656 7.269531 -6.121094 C 7.03125 -6.640625 6.6875 -7.046875 6.230469 -7.332031 C 5.777344 -7.621094 5.265625 -7.765625 4.699219 -7.765625 C 3.894531 -7.765625 3.203125 -7.488281 2.621094 -6.933594 C 2.042969 -6.382812 1.75 -5.457031 1.75 -4.164062 Z M 1.75 -4.164062 "/>
</g>
<g id="glyph-0-13">
<path d="M 4.867188 0 L 4.867188 -0.914062 C 4.382812 -0.210938 3.726562 0.140625 2.894531 0.140625 C 2.527344 0.140625 2.183594 0.0703125 1.867188 -0.0703125 C 1.546875 -0.210938 1.3125 -0.386719 1.15625 -0.601562 C 1.003906 -0.8125 0.894531 -1.074219 0.832031 -1.382812 C 0.789062 -1.589844 0.765625 -1.917969 0.765625 -2.367188 L 0.765625 -6.222656 L 1.820312 -6.222656 L 1.820312 -2.773438 C 1.820312 -2.21875 1.84375 -1.847656 1.886719 -1.65625 C 1.953125 -1.378906 2.09375 -1.164062 2.308594 -1.003906 C 2.523438 -0.847656 2.789062 -0.765625 3.105469 -0.765625 C 3.421875 -0.765625 3.71875 -0.847656 3.996094 -1.011719 C 4.273438 -1.171875 4.46875 -1.394531 4.585938 -1.671875 C 4.699219 -1.953125 4.757812 -2.355469 4.757812 -2.890625 L 4.757812 -6.222656 L 5.8125 -6.222656 L 5.8125 0 Z M 4.867188 0 "/>
</g>
<g id="glyph-0-14">
<path d="M 3.09375 -0.945312 L 3.246094 -0.0117188 C 2.949219 0.0507812 2.683594 0.0820312 2.449219 0.0820312 C 2.066406 0.0820312 1.769531 0.0195312 1.558594 -0.101562 C 1.347656 -0.21875 1.199219 -0.378906 1.113281 -0.578125 C 1.027344 -0.773438 0.984375 -1.1875 0.984375 -1.820312 L 0.984375 -5.402344 L 0.210938 -5.402344 L 0.210938 -6.222656 L 0.984375 -6.222656 L 0.984375 -7.765625 L 2.03125 -8.398438 L 2.03125 -6.222656 L 3.09375 -6.222656 L 3.09375 -5.402344 L 2.03125 -5.402344 L 2.03125 -1.765625 C 2.03125 -1.460938 2.050781 -1.269531 2.089844 -1.183594 C 2.125 -1.097656 2.1875 -1.027344 2.269531 -0.976562 C 2.355469 -0.925781 2.472656 -0.902344 2.632812 -0.902344 C 2.75 -0.902344 2.902344 -0.914062 3.09375 -0.945312 Z M 3.09375 -0.945312 "/>
</g>
<g id="glyph-0-15">
<path d="M 4.851562 -2.28125 L 5.890625 -2.144531 C 5.773438 -1.429688 5.484375 -0.871094 5.019531 -0.464844 C 4.550781 -0.0625 3.976562 0.140625 3.296875 0.140625 C 2.445312 0.140625 1.761719 -0.136719 1.246094 -0.695312 C 0.726562 -1.25 0.46875 -2.046875 0.46875 -3.085938 C 0.46875 -3.757812 0.578125 -4.347656 0.804688 -4.851562 C 1.023438 -5.355469 1.363281 -5.734375 1.820312 -5.984375 C 2.273438 -6.238281 2.769531 -6.363281 3.304688 -6.363281 C 3.980469 -6.363281 4.53125 -6.191406 4.960938 -5.851562 C 5.390625 -5.507812 5.667969 -5.023438 5.789062 -4.394531 L 4.765625 -4.234375 C 4.664062 -4.652344 4.492188 -4.96875 4.246094 -5.179688 C 3.996094 -5.390625 3.695312 -5.496094 3.34375 -5.496094 C 2.8125 -5.496094 2.382812 -5.304688 2.050781 -4.925781 C 1.71875 -4.542969 1.554688 -3.941406 1.554688 -3.117188 C 1.554688 -2.28125 1.710938 -1.671875 2.03125 -1.296875 C 2.351562 -0.917969 2.769531 -0.726562 3.289062 -0.726562 C 3.699219 -0.726562 4.046875 -0.851562 4.324219 -1.109375 C 4.601562 -1.359375 4.777344 -1.75 4.851562 -2.28125 Z M 4.851562 -2.28125 "/>
</g>
<g id="glyph-0-16">
<path d="M 0.398438 -3.109375 C 0.398438 -4.261719 0.71875 -5.117188 1.359375 -5.671875 C 1.894531 -6.132812 2.546875 -6.363281 3.316406 -6.363281 C 4.171875 -6.363281 4.871094 -6.082031 5.414062 -5.523438 C 5.957031 -4.960938 6.226562 -4.1875 6.226562 -3.199219 C 6.226562 -2.398438 6.109375 -1.769531 5.867188 -1.308594 C 5.628906 -0.851562 5.277344 -0.492188 4.820312 -0.242188 C 4.359375 0.0117188 3.859375 0.140625 3.316406 0.140625 C 2.445312 0.140625 1.742188 -0.140625 1.203125 -0.695312 C 0.667969 -1.253906 0.398438 -2.058594 0.398438 -3.109375 M 1.484375 -3.109375 C 1.484375 -2.3125 1.65625 -1.71875 2.003906 -1.320312 C 2.351562 -0.925781 2.789062 -0.726562 3.316406 -0.726562 C 3.839844 -0.726562 4.273438 -0.925781 4.625 -1.324219 C 4.96875 -1.722656 5.144531 -2.328125 5.144531 -3.148438 C 5.144531 -3.914062 4.96875 -4.5 4.621094 -4.894531 C 4.269531 -5.292969 3.835938 -5.492188 3.316406 -5.492188 C 2.789062 -5.492188 2.351562 -5.292969 2.003906 -4.898438 C 1.65625 -4.503906 1.484375 -3.90625 1.484375 -3.109375 Z M 1.484375 -3.109375 "/>
</g>
<g id="glyph-0-17">
<path d="M 0.789062 0 L 0.789062 -6.222656 L 1.734375 -6.222656 L 1.734375 -5.351562 C 1.929688 -5.65625 2.1875 -5.898438 2.515625 -6.085938 C 2.835938 -6.269531 3.207031 -6.363281 3.621094 -6.363281 C 4.082031 -6.363281 4.460938 -6.265625 4.753906 -6.078125 C 5.050781 -5.882812 5.257812 -5.617188 5.378906 -5.273438 C 5.871094 -6 6.511719 -6.363281 7.300781 -6.363281 C 7.917969 -6.363281 8.390625 -6.191406 8.726562 -5.851562 C 9.054688 -5.507812 9.222656 -4.980469 9.222656 -4.273438 L 9.222656 0 L 8.171875 0 L 8.171875 -3.921875 C 8.171875 -4.339844 8.140625 -4.644531 8.070312 -4.832031 C 8.003906 -5.015625 7.878906 -5.164062 7.699219 -5.28125 C 7.519531 -5.390625 7.308594 -5.449219 7.066406 -5.449219 C 6.628906 -5.449219 6.265625 -5.304688 5.976562 -5.011719 C 5.6875 -4.722656 5.542969 -4.253906 5.542969 -3.617188 L 5.542969 0 L 4.488281 0 L 4.488281 -4.042969 C 4.488281 -4.511719 4.402344 -4.863281 4.230469 -5.097656 C 4.058594 -5.332031 3.777344 -5.449219 3.386719 -5.449219 C 3.089844 -5.449219 2.816406 -5.371094 2.5625 -5.214844 C 2.3125 -5.058594 2.128906 -4.828125 2.015625 -4.53125 C 1.902344 -4.226562 1.84375 -3.792969 1.84375 -3.226562 L 1.84375 0 Z M 0.789062 0 "/>
</g>
<g id="glyph-0-18">
<path d="M 5.050781 -2.003906 L 6.140625 -1.867188 C 5.96875 -1.230469 5.648438 -0.738281 5.1875 -0.386719 C 4.71875 -0.0351562 4.125 0.140625 3.40625 0.140625 C 2.492188 0.140625 1.773438 -0.140625 1.238281 -0.699219 C 0.707031 -1.261719 0.4375 -2.046875 0.4375 -3.058594 C 0.4375 -4.105469 0.710938 -4.917969 1.25 -5.496094 C 1.789062 -6.074219 2.484375 -6.363281 3.34375 -6.363281 C 4.179688 -6.363281 4.859375 -6.078125 5.382812 -5.515625 C 5.914062 -4.945312 6.175781 -4.148438 6.175781 -3.125 C 6.175781 -3.058594 6.171875 -2.964844 6.171875 -2.84375 L 1.53125 -2.84375 C 1.566406 -2.15625 1.761719 -1.632812 2.109375 -1.273438 C 2.457031 -0.90625 2.890625 -0.726562 3.410156 -0.726562 C 3.796875 -0.726562 4.125 -0.828125 4.398438 -1.03125 C 4.671875 -1.234375 4.890625 -1.558594 5.050781 -2.003906 M 1.585938 -3.710938 L 5.0625 -3.710938 C 5.015625 -4.230469 4.882812 -4.625 4.664062 -4.886719 C 4.328125 -5.292969 3.890625 -5.496094 3.359375 -5.496094 C 2.871094 -5.496094 2.464844 -5.332031 2.136719 -5.007812 C 1.804688 -4.683594 1.625 -4.25 1.585938 -3.710938 Z M 1.585938 -3.710938 "/>
</g>
<g id="glyph-1-0">
<path d="M -3.011719 -7.054688 L -2.722656 -8.191406 C -1.789062 -7.953125 -1.078125 -7.523438 -0.589844 -6.90625 C -0.0976562 -6.285156 0.148438 -5.527344 0.148438 -4.632812 C 0.148438 -3.710938 -0.0429688 -2.957031 -0.417969 -2.375 C -0.796875 -1.796875 -1.34375 -1.355469 -2.054688 -1.050781 C -2.769531 -0.75 -3.539062 -0.597656 -4.359375 -0.597656 C -5.253906 -0.597656 -6.035156 -0.769531 -6.699219 -1.109375 C -7.367188 -1.453125 -7.871094 -1.9375 -8.21875 -2.570312 C -8.5625 -3.199219 -8.734375 -3.894531 -8.734375 -4.652344 C -8.734375 -5.511719 -8.515625 -6.234375 -8.078125 -6.820312 C -7.640625 -7.40625 -7.027344 -7.8125 -6.234375 -8.046875 L -5.96875 -6.925781 C -6.59375 -6.726562 -7.050781 -6.4375 -7.335938 -6.058594 C -7.621094 -5.679688 -7.765625 -5.203125 -7.765625 -4.628906 C -7.765625 -3.96875 -7.605469 -3.417969 -7.289062 -2.972656 C -6.972656 -2.53125 -6.546875 -2.21875 -6.015625 -2.039062 C -5.480469 -1.859375 -4.929688 -1.769531 -4.367188 -1.769531 C -3.632812 -1.769531 -2.996094 -1.875 -2.453125 -2.089844 C -1.90625 -2.300781 -1.5 -2.632812 -1.230469 -3.082031 C -0.960938 -3.53125 -0.824219 -4.015625 -0.824219 -4.539062 C -0.824219 -5.175781 -1.007812 -5.714844 -1.375 -6.15625 C -1.742188 -6.597656 -2.289062 -6.898438 -3.011719 -7.054688 Z M -3.011719 -7.054688 "/>
</g>
<g id="glyph-1-1">
<path d="M -3.109375 -0.398438 C -4.261719 -0.398438 -5.117188 -0.71875 -5.671875 -1.359375 C -6.132812 -1.894531 -6.363281 -2.546875 -6.363281 -3.316406 C -6.363281 -4.171875 -6.082031 -4.871094 -5.523438 -5.414062 C -4.960938 -5.957031 -4.1875 -6.226562 -3.199219 -6.226562 C -2.398438 -6.226562 -1.769531 -6.109375 -1.308594 -5.867188 C -0.851562 -5.628906 -0.492188 -5.277344 -0.238281 -4.820312 C 0.0117188 -4.359375 0.140625 -3.859375 0.140625 -3.316406 C 0.140625 -2.445312 -0.140625 -1.742188 -0.695312 -1.203125 C -1.253906 -0.667969 -2.058594 -0.398438 -3.109375 -0.398438 M -3.109375 -1.484375 C -2.3125 -1.484375 -1.71875 -1.65625 -1.320312 -2.003906 C -0.925781 -2.351562 -0.726562 -2.789062 -0.726562 -3.316406 C -0.726562 -3.839844 -0.925781 -4.273438 -1.324219 -4.625 C -1.722656 -4.96875 -2.328125 -5.144531 -3.144531 -5.144531 C -3.914062 -5.144531 -4.5 -4.96875 -4.894531 -4.621094 C -5.292969 -4.269531 -5.492188 -3.835938 -5.492188 -3.316406 C -5.492188 -2.789062 -5.292969 -2.351562 -4.898438 -2.003906 C -4.503906 -1.65625 -3.90625 -1.484375 -3.109375 -1.484375 Z M -3.109375 -1.484375 "/>
</g>
<g id="glyph-1-2">
<path d="M 0 -4.867188 L -0.914062 -4.867188 C -0.210938 -4.382812 0.140625 -3.726562 0.140625 -2.894531 C 0.140625 -2.527344 0.0703125 -2.183594 -0.0703125 -1.867188 C -0.210938 -1.546875 -0.386719 -1.3125 -0.601562 -1.15625 C -0.8125 -1.003906 -1.074219 -0.894531 -1.382812 -0.832031 C -1.589844 -0.789062 -1.917969 -0.769531 -2.367188 -0.769531 L -6.222656 -0.769531 L -6.222656 -1.824219 L -2.773438 -1.824219 C -2.21875 -1.824219 -1.847656 -1.84375 -1.65625 -1.886719 C -1.378906 -1.953125 -1.164062 -2.09375 -1.003906 -2.308594 C -0.847656 -2.523438 -0.765625 -2.789062 -0.765625 -3.105469 C -0.765625 -3.421875 -0.847656 -3.71875 -1.011719 -3.996094 C -1.171875 -4.273438 -1.394531 -4.46875 -1.671875 -4.585938 C -1.953125 -4.699219 -2.355469 -4.757812 -2.886719 -4.757812 L -6.222656 -4.757812 L -6.222656 -5.8125 L 0 -5.8125 Z M 0 -4.867188 "/>
</g>
<g id="glyph-1-3">
<path d="M 0 -0.789062 L -6.222656 -0.792969 L -6.222656 -1.742188 L -5.335938 -1.742188 C -6.019531 -2.195312 -6.363281 -2.855469 -6.363281 -3.722656 C -6.363281 -4.09375 -6.296875 -4.441406 -6.160156 -4.753906 C -6.027344 -5.070312 -5.847656 -5.304688 -5.632812 -5.460938 C -5.410156 -5.617188 -5.152344 -5.726562 -4.851562 -5.789062 C -4.65625 -5.828125 -4.3125 -5.847656 -3.824219 -5.847656 L 0 -5.847656 L 0 -4.792969 L -3.785156 -4.792969 C -4.214844 -4.792969 -4.535156 -4.75 -4.75 -4.671875 C -4.960938 -4.585938 -5.132812 -4.441406 -5.257812 -4.234375 C -5.386719 -4.023438 -5.449219 -3.78125 -5.449219 -3.5 C -5.449219 -3.046875 -5.304688 -2.660156 -5.023438 -2.335938 C -4.734375 -2.007812 -4.195312 -1.847656 -3.398438 -1.847656 L 0 -1.84375 Z M 0 -0.789062 "/>
</g>
<g id="glyph-1-4">
<path d="M -0.941406 -3.09375 L -0.0117188 -3.246094 C 0.0507812 -2.949219 0.0820312 -2.683594 0.0820312 -2.449219 C 0.0820312 -2.066406 0.0195312 -1.769531 -0.0976562 -1.558594 C -0.21875 -1.347656 -0.378906 -1.199219 -0.578125 -1.113281 C -0.773438 -1.027344 -1.1875 -0.984375 -1.820312 -0.984375 L -5.402344 -0.984375 L -5.402344 -0.210938 L -6.222656 -0.210938 L -6.222656 -0.984375 L -7.765625 -0.984375 L -8.398438 -2.035156 L -6.222656 -2.035156 L -6.222656 -3.09375 L -5.402344 -3.09375 L -5.402344 -2.035156 L -1.761719 -2.03125 C -1.460938 -2.03125 -1.269531 -2.050781 -1.183594 -2.089844 C -1.097656 -2.125 -1.027344 -2.1875 -0.976562 -2.269531 C -0.925781 -2.355469 -0.902344 -2.472656 -0.902344 -2.632812 C -0.902344 -2.75 -0.914062 -2.902344 -0.941406 -3.09375 Z M -0.941406 -3.09375 "/>
</g>
</g>
<clipPath id="clip-0">
<path clip-rule="nonzero" d="M 60.832031 5.976562 L 426.023438 5.976562 L 426.023438 247.421875 L 60.832031 247.421875 Z M 60.832031 5.976562 "/>
</clipPath>
</defs>
<rect x="-43.2" y="-28.8" width="518.4" height="345.6" fill="rgb(100%, 100%, 100%)" fill-opacity="1"/>
<rect x="-43.2" y="-28.8" width="518.4" height="345.6" fill="rgb(100%, 100%, 100%)" fill-opacity="1"/>
<path fill="none" stroke-width="1.163976" stroke-linecap="round" stroke-linejoin="round" stroke="rgb(100%, 100%, 100%)" stroke-opacity="1" stroke-miterlimit="10" d="M 0 288 L 432 288 L 432 0 L 0 0 Z M 0 288 "/>
<g clip-path="url(#clip-0)">
<path fill-rule="nonzero" fill="rgb(100%, 100%, 100%)" fill-opacity="1" d="M 60.832031 247.421875 L 426.023438 247.421875 L 426.023438 5.976562 L 60.832031 5.976562 Z M 60.832031 247.421875 "/>
</g>
<path fill-rule="nonzero" fill="rgb(80.392157%, 58.823529%, 80.392157%)" fill-opacity="1" d="M 77.429688 236.449219 L 128.074219 236.449219 L 128.074219 17.722656 L 77.429688 17.722656 Z M 77.429688 236.449219 "/>
<path fill-rule="nonzero" fill="rgb(80.392157%, 58.823529%, 80.392157%)" fill-opacity="1" d="M 133.699219 236.449219 L 184.34375 236.449219 L 184.34375 19.742188 L 133.699219 19.742188 Z M 133.699219 236.449219 "/>
<path fill-rule="nonzero" fill="rgb(80.392157%, 58.823529%, 80.392157%)" fill-opacity="1" d="M 189.96875 236.449219 L 240.613281 236.449219 L 240.613281 19.703125 L 189.96875 19.703125 Z M 189.96875 236.449219 "/>
<path fill-rule="nonzero" fill="rgb(80.392157%, 58.823529%, 80.392157%)" fill-opacity="1" d="M 246.238281 236.449219 L 296.882812 236.449219 L 296.882812 21.707031 L 246.238281 21.707031 Z M 246.238281 236.449219 "/>
<path fill-rule="nonzero" fill="rgb(80.392157%, 58.823529%, 80.392157%)" fill-opacity="1" d="M 302.511719 236.449219 L 353.15625 236.449219 L 353.15625 16.953125 L 302.511719 16.953125 Z M 302.511719 236.449219 "/>
<path fill-rule="nonzero" fill="rgb(80.392157%, 58.823529%, 80.392157%)" fill-opacity="1" d="M 358.78125 236.449219 L 409.425781 236.449219 L 409.425781 20.144531 L 358.78125 20.144531 Z M 358.78125 236.449219 "/>
<path fill-rule="nonzero" fill="rgb(100%, 100%, 100%)" fill-opacity="1" stroke-width="0.581988" stroke-linecap="round" stroke-linejoin="round" stroke="rgb(0%, 0%, 0%)" stroke-opacity="1" stroke-miterlimit="10" d="M 80.960938 68.089844 L 124.542969 68.089844 L 124.453125 68.089844 L 124.800781 68.074219 L 125.140625 68.003906 L 125.46875 67.882812 L 125.769531 67.707031 L 126.039062 67.488281 L 126.269531 67.226562 L 126.453125 66.933594 L 126.589844 66.613281 L 126.671875 66.277344 L 126.703125 65.929688 L 126.703125 53.460938 L 126.671875 53.113281 L 126.589844 52.777344 L 126.453125 52.457031 L 126.269531 52.164062 L 126.039062 51.902344 L 125.769531 51.683594 L 125.46875 51.507812 L 125.140625 51.386719 L 124.800781 51.316406 L 124.542969 51.300781 L 80.960938 51.300781 L 81.222656 51.316406 L 80.875 51.300781 L 80.53125 51.34375 L 80.195312 51.441406 L 79.882812 51.589844 L 79.597656 51.789062 L 79.34375 52.027344 L 79.136719 52.304688 L 78.976562 52.613281 L 78.863281 52.945312 L 78.808594 53.285156 L 78.800781 53.460938 L 78.800781 65.929688 L 78.808594 65.757812 L 78.808594 66.105469 L 78.863281 66.449219 L 78.976562 66.777344 L 79.136719 67.085938 L 79.34375 67.363281 L 79.597656 67.605469 L 79.882812 67.800781 L 80.195312 67.949219 L 80.53125 68.046875 L 80.875 68.089844 Z M 80.960938 68.089844 "/>
<g fill="rgb(0%, 0%, 0%)" fill-opacity="1">
<use xlink:href="#glyph-0-0" x="82.398438" y="64.492188"/>
<use xlink:href="#glyph-0-1" x="89.072266" y="64.492188"/>
<use xlink:href="#glyph-0-2" x="95.746094" y="64.492188"/>
<use xlink:href="#glyph-0-3" x="99.080078" y="64.492188"/>
<use xlink:href="#glyph-0-4" x="105.753906" y="64.492188"/>
<use xlink:href="#glyph-0-5" x="112.427734" y="64.492188"/>
</g>
<path fill-rule="nonzero" fill="rgb(100%, 100%, 100%)" fill-opacity="1" stroke-width="0.581988" stroke-linecap="round" stroke-linejoin="round" stroke="rgb(0%, 0%, 0%)" stroke-opacity="1" stroke-miterlimit="10" d="M 137.230469 70.109375 L 180.8125 70.109375 L 180.722656 70.109375 L 181.070312 70.09375 L 181.414062 70.023438 L 181.738281 69.902344 L 182.039062 69.726562 L 182.308594 69.507812 L 182.539062 69.246094 L 182.722656 68.953125 L 182.859375 68.632812 L 182.941406 68.296875 L 182.972656 67.949219 L 182.972656 55.480469 L 182.941406 55.132812 L 182.859375 54.796875 L 182.722656 54.476562 L 182.539062 54.183594 L 182.308594 53.921875 L 182.039062 53.703125 L 181.738281 53.527344 L 181.414062 53.40625 L 181.070312 53.335938 L 180.8125 53.320312 L 137.230469 53.320312 L 137.492188 53.335938 L 137.144531 53.320312 L 136.800781 53.363281 L 136.464844 53.460938 L 136.152344 53.609375 L 135.867188 53.808594 L 135.613281 54.046875 L 135.40625 54.324219 L 135.246094 54.632812 L 135.132812 54.964844 L 135.078125 55.304688 L 135.070312 55.480469 L 135.070312 67.949219 L 135.078125 67.777344 L 135.078125 68.125 L 135.132812 68.464844 L 135.246094 68.796875 L 135.40625 69.105469 L 135.613281 69.382812 L 135.867188 69.621094 L 136.152344 69.820312 L 136.464844 69.96875 L 136.800781 70.066406 L 137.144531 70.109375 Z M 137.230469 70.109375 "/>
<g fill="rgb(0%, 0%, 0%)" fill-opacity="1">
<use xlink:href="#glyph-0-0" x="138.671875" y="66.507812"/>
<use xlink:href="#glyph-0-1" x="145.345703" y="66.507812"/>
<use xlink:href="#glyph-0-2" x="152.019531" y="66.507812"/>
<use xlink:href="#glyph-0-1" x="155.353516" y="66.507812"/>
<use xlink:href="#glyph-0-6" x="162.027344" y="66.507812"/>
<use xlink:href="#glyph-0-5" x="168.701172" y="66.507812"/>
</g>
<path fill-rule="nonzero" fill="rgb(100%, 100%, 100%)" fill-opacity="1" stroke-width="0.581988" stroke-linecap="round" stroke-linejoin="round" stroke="rgb(0%, 0%, 0%)" stroke-opacity="1" stroke-miterlimit="10" d="M 193.5 70.070312 L 237.082031 70.070312 L 236.996094 70.070312 L 237.339844 70.054688 L 237.683594 69.984375 L 238.007812 69.863281 L 238.308594 69.6875 L 238.578125 69.46875 L 238.808594 69.207031 L 238.992188 68.914062 L 239.128906 68.59375 L 239.214844 68.257812 L 239.242188 67.910156 L 239.242188 55.441406 L 239.214844 55.09375 L 239.128906 54.757812 L 238.992188 54.4375 L 238.808594 54.144531 L 238.578125 53.882812 L 238.308594 53.664062 L 238.007812 53.488281 L 237.683594 53.367188 L 237.339844 53.296875 L 237.082031 53.28125 L 193.5 53.28125 L 193.761719 53.296875 L 193.414062 53.28125 L 193.070312 53.324219 L 192.734375 53.421875 L 192.421875 53.570312 L 192.136719 53.769531 L 191.886719 54.007812 L 191.675781 54.285156 L 191.515625 54.59375 L 191.40625 54.925781 L 191.347656 55.265625 L 191.34375 55.441406 L 191.34375 67.910156 L 191.347656 67.738281 L 191.347656 68.085938 L 191.40625 68.425781 L 191.515625 68.757812 L 191.675781 69.066406 L 191.886719 69.34375 L 192.136719 69.582031 L 192.421875 69.78125 L 192.734375 69.929688 L 193.070312 70.027344 L 193.414062 70.070312 Z M 193.5 70.070312 "/>
<g fill="rgb(0%, 0%, 0%)" fill-opacity="1">
<use xlink:href="#glyph-0-0" x="194.941406" y="66.46875"/>
<use xlink:href="#glyph-0-1" x="201.615234" y="66.46875"/>
<use xlink:href="#glyph-0-2" x="208.289062" y="66.46875"/>
<use xlink:href="#glyph-0-1" x="211.623047" y="66.46875"/>
<use xlink:href="#glyph-0-7" x="218.296875" y="66.46875"/>
<use xlink:href="#glyph-0-5" x="224.970703" y="66.46875"/>
</g>
<path fill-rule="nonzero" fill="rgb(100%, 100%, 100%)" fill-opacity="1" stroke-width="0.581988" stroke-linecap="round" stroke-linejoin="round" stroke="rgb(0%, 0%, 0%)" stroke-opacity="1" stroke-miterlimit="10" d="M 249.773438 72.078125 L 293.351562 72.078125 L 293.265625 72.074219 L 293.613281 72.0625 L 293.953125 71.992188 L 294.277344 71.867188 L 294.578125 71.695312 L 294.847656 71.476562 L 295.078125 71.214844 L 295.261719 70.921875 L 295.398438 70.601562 L 295.484375 70.261719 L 295.511719 69.917969 L 295.511719 57.445312 L 295.484375 57.101562 L 295.398438 56.761719 L 295.261719 56.441406 L 295.078125 56.148438 L 294.847656 55.890625 L 294.578125 55.667969 L 294.277344 55.496094 L 293.953125 55.371094 L 293.613281 55.304688 L 293.351562 55.285156 L 249.773438 55.285156 L 250.03125 55.304688 L 249.683594 55.289062 L 249.339844 55.332031 L 249.007812 55.425781 L 248.691406 55.578125 L 248.40625 55.773438 L 248.15625 56.015625 L 247.945312 56.292969 L 247.785156 56.601562 L 247.675781 56.929688 L 247.617188 57.273438 L 247.613281 57.445312 L 247.613281 69.917969 L 247.617188 69.742188 L 247.617188 70.089844 L 247.675781 70.433594 L 247.785156 70.761719 L 247.945312 71.070312 L 248.15625 71.347656 L 248.40625 71.589844 L 248.691406 71.789062 L 249.007812 71.9375 L 249.339844 72.035156 L 249.683594 72.074219 Z M 249.773438 72.078125 "/>
<g fill="rgb(0%, 0%, 0%)" fill-opacity="1">
<use xlink:href="#glyph-0-0" x="251.210938" y="68.476562"/>
<use xlink:href="#glyph-0-1" x="257.884766" y="68.476562"/>
<use xlink:href="#glyph-0-2" x="264.558594" y="68.476562"/>
<use xlink:href="#glyph-0-7" x="267.892578" y="68.476562"/>
<use xlink:href="#glyph-0-8" x="274.566406" y="68.476562"/>
<use xlink:href="#glyph-0-5" x="281.240234" y="68.476562"/>
</g>
<path fill-rule="nonzero" fill="rgb(100%, 100%, 100%)" fill-opacity="1" stroke-width="0.581988" stroke-linecap="round" stroke-linejoin="round" stroke="rgb(0%, 0%, 0%)" stroke-opacity="1" stroke-miterlimit="10" d="M 306.042969 67.320312 L 349.621094 67.320312 L 349.535156 67.320312 L 349.882812 67.304688 L 350.222656 67.238281 L 350.546875 67.113281 L 350.847656 66.941406 L 351.117188 66.71875 L 351.347656 66.460938 L 351.535156 66.164062 L 351.667969 65.847656 L 351.753906 65.507812 L 351.78125 65.160156 L 351.78125 52.691406 L 351.753906 52.34375 L 351.667969 52.007812 L 351.535156 51.6875 L 351.347656 51.394531 L 351.117188 51.132812 L 350.847656 50.914062 L 350.546875 50.742188 L 350.222656 50.617188 L 349.882812 50.546875 L 349.621094 50.53125 L 306.042969 50.53125 L 306.300781 50.546875 L 305.953125 50.535156 L 305.609375 50.574219 L 305.277344 50.671875 L 304.960938 50.820312 L 304.675781 51.019531 L 304.425781 51.257812 L 304.214844 51.539062 L 304.054688 51.84375 L 303.945312 52.175781 L 303.890625 52.519531 L 303.882812 52.691406 L 303.882812 65.160156 L 303.890625 64.988281 L 303.890625 65.335938 L 303.945312 65.679688 L 304.054688 66.007812 L 304.214844 66.316406 L 304.425781 66.59375 L 304.675781 66.835938 L 304.960938 67.03125 L 305.277344 67.179688 L 305.609375 67.277344 L 305.953125 67.320312 Z M 306.042969 67.320312 "/>
<g fill="rgb(0%, 0%, 0%)" fill-opacity="1">
<use xlink:href="#glyph-0-0" x="307.480469" y="63.722656"/>
<use xlink:href="#glyph-0-1" x="314.154297" y="63.722656"/>
<use xlink:href="#glyph-0-2" x="320.828125" y="63.722656"/>
<use xlink:href="#glyph-0-8" x="324.162109" y="63.722656"/>
<use xlink:href="#glyph-0-9" x="330.835938" y="63.722656"/>
<use xlink:href="#glyph-0-5" x="337.509766" y="63.722656"/>
</g>
<path fill-rule="nonzero" fill="rgb(100%, 100%, 100%)" fill-opacity="1" stroke-width="0.581988" stroke-linecap="round" stroke-linejoin="round" stroke="rgb(0%, 0%, 0%)" stroke-opacity="1" stroke-miterlimit="10" d="M 365.648438 70.511719 L 402.554688 70.511719 L 402.46875 70.511719 L 402.8125 70.496094 L 403.15625 70.429688 L 403.480469 70.304688 L 403.78125 70.132812 L 404.050781 69.910156 L 404.28125 69.652344 L 404.464844 69.355469 L 404.601562 69.039062 L 404.6875 68.699219 L 404.714844 68.355469 L 404.714844 55.882812 L 404.6875 55.539062 L 404.601562 55.199219 L 404.464844 54.878906 L 404.28125 54.585938 L 404.050781 54.324219 L 403.78125 54.105469 L 403.480469 53.933594 L 403.15625 53.808594 L 402.8125 53.738281 L 402.554688 53.722656 L 365.648438 53.722656 L 365.910156 53.738281 L 365.5625 53.726562 L 365.214844 53.765625 L 364.882812 53.863281 L 364.570312 54.011719 L 364.28125 54.210938 L 364.03125 54.453125 L 363.824219 54.730469 L 363.660156 55.035156 L 363.550781 55.367188 L 363.496094 55.710938 L 363.488281 55.882812 L 363.488281 68.355469 L 363.496094 68.179688 L 363.496094 68.527344 L 363.550781 68.871094 L 363.660156 69.199219 L 363.824219 69.507812 L 364.03125 69.785156 L 364.28125 70.027344 L 364.570312 70.222656 L 364.882812 70.375 L 365.214844 70.46875 L 365.5625 70.511719 Z M 365.648438 70.511719 "/>
<g fill="rgb(0%, 0%, 0%)" fill-opacity="1">
<use xlink:href="#glyph-0-0" x="367.089844" y="66.914062"/>
<use xlink:href="#glyph-0-1" x="373.763672" y="66.914062"/>
<use xlink:href="#glyph-0-2" x="380.4375" y="66.914062"/>
<use xlink:href="#glyph-0-1" x="383.771484" y="66.914062"/>
<use xlink:href="#glyph-0-5" x="390.445312" y="66.914062"/>
</g>
<path fill="none" stroke-width="1.066978" stroke-linecap="butt" stroke-linejoin="round" stroke="rgb(0%, 0%, 0%)" stroke-opacity="1" stroke-miterlimit="10" d="M 60.832031 247.421875 L 60.832031 5.976562 "/>
<g fill="rgb(0%, 0%, 0%)" fill-opacity="1">
<use xlink:href="#glyph-0-10" x="48.777344" y="241.242188"/>
</g>
<g fill="rgb(0%, 0%, 0%)" fill-opacity="1">
<use xlink:href="#glyph-0-9" x="28.753906" y="176.105469"/>
<use xlink:href="#glyph-0-10" x="35.427734" y="176.105469"/>
<use xlink:href="#glyph-0-10" x="42.101562" y="176.105469"/>
<use xlink:href="#glyph-0-10" x="48.775391" y="176.105469"/>
</g>
<g fill="rgb(0%, 0%, 0%)" fill-opacity="1">
<use xlink:href="#glyph-0-0" x="22.082031" y="110.972656"/>
<use xlink:href="#glyph-0-10" x="28.755859" y="110.972656"/>
<use xlink:href="#glyph-0-10" x="35.429688" y="110.972656"/>
<use xlink:href="#glyph-0-10" x="42.103516" y="110.972656"/>
<use xlink:href="#glyph-0-10" x="48.777344" y="110.972656"/>
</g>
<g fill="rgb(0%, 0%, 0%)" fill-opacity="1">
<use xlink:href="#glyph-0-0" x="22.082031" y="45.835938"/>
<use xlink:href="#glyph-0-9" x="28.755859" y="45.835938"/>
<use xlink:href="#glyph-0-10" x="35.429688" y="45.835938"/>
<use xlink:href="#glyph-0-10" x="42.103516" y="45.835938"/>
<use xlink:href="#glyph-0-10" x="48.777344" y="45.835938"/>
</g>
<path fill="none" stroke-width="1.163976" stroke-linecap="butt" stroke-linejoin="round" stroke="rgb(20%, 20%, 20%)" stroke-opacity="1" stroke-miterlimit="10" d="M 57.839844 236.449219 L 60.832031 236.449219 "/>
<path fill="none" stroke-width="1.163976" stroke-linecap="butt" stroke-linejoin="round" stroke="rgb(20%, 20%, 20%)" stroke-opacity="1" stroke-miterlimit="10" d="M 57.839844 171.3125 L 60.832031 171.3125 "/>
<path fill="none" stroke-width="1.163976" stroke-linecap="butt" stroke-linejoin="round" stroke="rgb(20%, 20%, 20%)" stroke-opacity="1" stroke-miterlimit="10" d="M 57.839844 106.175781 L 60.832031 106.175781 "/>
<path fill="none" stroke-width="1.163976" stroke-linecap="butt" stroke-linejoin="round" stroke="rgb(20%, 20%, 20%)" stroke-opacity="1" stroke-miterlimit="10" d="M 57.839844 41.039062 L 60.832031 41.039062 "/>
<path fill="none" stroke-width="1.066978" stroke-linecap="butt" stroke-linejoin="round" stroke="rgb(0%, 0%, 0%)" stroke-opacity="1" stroke-miterlimit="10" d="M 60.832031 247.421875 L 426.023438 247.421875 "/>
<path fill="none" stroke-width="1.163976" stroke-linecap="butt" stroke-linejoin="round" stroke="rgb(20%, 20%, 20%)" stroke-opacity="1" stroke-miterlimit="10" d="M 102.75 250.414062 L 102.75 247.421875 "/>
<path fill="none" stroke-width="1.163976" stroke-linecap="butt" stroke-linejoin="round" stroke="rgb(20%, 20%, 20%)" stroke-opacity="1" stroke-miterlimit="10" d="M 159.023438 250.414062 L 159.023438 247.421875 "/>
<path fill="none" stroke-width="1.163976" stroke-linecap="butt" stroke-linejoin="round" stroke="rgb(20%, 20%, 20%)" stroke-opacity="1" stroke-miterlimit="10" d="M 215.292969 250.414062 L 215.292969 247.421875 "/>
<path fill="none" stroke-width="1.163976" stroke-linecap="butt" stroke-linejoin="round" stroke="rgb(20%, 20%, 20%)" stroke-opacity="1" stroke-miterlimit="10" d="M 271.5625 250.414062 L 271.5625 247.421875 "/>
<path fill="none" stroke-width="1.163976" stroke-linecap="butt" stroke-linejoin="round" stroke="rgb(20%, 20%, 20%)" stroke-opacity="1" stroke-miterlimit="10" d="M 327.832031 250.414062 L 327.832031 247.421875 "/>
<path fill="none" stroke-width="1.163976" stroke-linecap="butt" stroke-linejoin="round" stroke="rgb(20%, 20%, 20%)" stroke-opacity="1" stroke-miterlimit="10" d="M 384.101562 250.414062 L 384.101562 247.421875 "/>
<g fill="rgb(0%, 0%, 0%)" fill-opacity="1">
<use xlink:href="#glyph-0-0" x="99.414062" y="262.394531"/>
</g>
<g fill="rgb(0%, 0%, 0%)" fill-opacity="1">
<use xlink:href="#glyph-0-11" x="155.6875" y="262.394531"/>
</g>
<g fill="rgb(0%, 0%, 0%)" fill-opacity="1">
<use xlink:href="#glyph-0-6" x="211.957031" y="262.394531"/>
</g>
<g fill="rgb(0%, 0%, 0%)" fill-opacity="1">
<use xlink:href="#glyph-0-7" x="268.226562" y="262.394531"/>
</g>
<g fill="rgb(0%, 0%, 0%)" fill-opacity="1">
<use xlink:href="#glyph-0-9" x="324.496094" y="262.394531"/>
</g>
<g fill="rgb(0%, 0%, 0%)" fill-opacity="1">
<use xlink:href="#glyph-0-1" x="380.765625" y="262.394531"/>
</g>
<g fill="rgb(0%, 0%, 0%)" fill-opacity="1">
<use xlink:href="#glyph-0-12" x="219.082031" y="278.496094"/>
<use xlink:href="#glyph-0-13" x="228.416016" y="278.496094"/>
<use xlink:href="#glyph-0-14" x="235.089844" y="278.496094"/>
<use xlink:href="#glyph-0-15" x="238.423828" y="278.496094"/>
<use xlink:href="#glyph-0-16" x="244.423828" y="278.496094"/>
<use xlink:href="#glyph-0-17" x="251.097656" y="278.496094"/>
<use xlink:href="#glyph-0-18" x="261.09375" y="278.496094"/>
</g>
<g fill="rgb(0%, 0%, 0%)" fill-opacity="1">
<use xlink:href="#glyph-1-0" x="15.566406" y="142.710938"/>
<use xlink:href="#glyph-1-1" x="15.566406" y="134.044922"/>
<use xlink:href="#glyph-1-2" x="15.566406" y="127.371094"/>
<use xlink:href="#glyph-1-3" x="15.566406" y="120.697266"/>
<use xlink:href="#glyph-1-4" x="15.566406" y="114.023438"/>
</g>
</svg>
