<svg version="1.1" viewBox="0.0 0.0 652.9658792650919 696.4829396325459" fill="none" stroke="none" stroke-linecap="square" stroke-miterlimit="10" xmlns:xlink="http://www.w3.org/1999/xlink" xmlns="http://www.w3.org/2000/svg"><clipPath id="p.0"><path d="m0 0l652.9659 0l0 696.4829l-652.9659 0l0 -696.4829z" clip-rule="nonzero"/></clipPath><g clip-path="url(#p.0)"><path fill="#000000" fill-opacity="0.0" d="m0 0l652.9659 0l0 696.4829l-652.9659 0z" fill-rule="evenodd"/><path fill="#cfe2f3" d="m241.30183 143.82677l0 0c0 -43.269547 38.136887 -78.34645 85.18111 -78.34645l0 0c47.04422 0 85.18109 35.076904 85.18109 78.34645l0 0c0 43.26956 -38.13687 78.346466 -85.18109 78.346466l0 0c-47.04422 0 -85.18111 -35.076904 -85.18111 -78.346466z" fill-rule="evenodd"/><path fill="#000000" d="m293.65778 135.3799l8.96875 0l0 2.046875l-11.484375 0l0 -18.953125l2.515625 0l0 16.90625zm20.140228 2.046875q-0.203125 -0.421875 -0.34375 -1.484375q-1.671875 1.75 -4.0 1.75q-2.078125 0 -3.421875 -1.171875q-1.328125 -1.1875 -1.328125 -3.0q0 -2.203125 1.671875 -3.40625q1.671875 -1.21875 4.703125 -1.21875l2.34375 0l0 -1.109375q0 -1.265625 -0.765625 -2.015625q-0.75 -0.75 -2.21875 -0.75q-1.28125 0 -2.15625 0.65625q-0.875 0.640625 -0.875 1.578125l-2.421875 0q0 -1.0625 0.75 -2.046875q0.75 -0.984375 2.03125 -1.546875q1.28125 -0.578125 2.8125 -0.578125q2.4375 0 3.8125 1.21875q1.390625 1.21875 1.4375 3.34375l0 6.484375q0 1.9375 0.5 3.09375l0 0.203125l-2.53125 0zm-4.0 -1.828125q1.140625 0 2.15625 -0.578125q1.015625 -0.59375 1.46875 -1.53125l0 -2.890625l-1.890625 0q-4.421875 0 -4.421875 2.578125q0 1.140625 0.75 1.78125q0.765625 0.640625 1.9375 0.640625zm13.077667 -15.671875l0 3.421875l2.625 0l0 1.859375l-2.625 0l0 8.734375q0 0.84375 0.34375 1.265625q0.359375 0.421875 1.203125 0.421875q0.40625 0 1.140625 -0.15625l0 1.953125q-0.953125 0.265625 -1.84375 0.265625q-1.609375 0 -2.4375 -0.96875q-0.8125 -0.984375 -0.8125 -2.78125l0 -8.734375l-2.578125 0l0 -1.859375l2.578125 0l0 -3.421875l2.40625 0zm11.285645 17.765625q-2.875 0 -4.671875 -1.875q-1.796875 -1.890625 -1.796875 -5.046875l0 -0.4375q0 -2.09375 0.796875 -3.734375q0.8125 -1.65625 2.25 -2.578125q1.4375 -0.9375 3.109375 -0.9375q2.75 0 4.265625 1.8125q1.53125 1.8125 1.53125 5.171875l0 1.0l-9.53125 0q0.046875 2.09375 1.203125 3.375q1.171875 1.28125 2.96875 1.28125q1.28125 0 2.15625 -0.515625q0.890625 -0.53125 1.546875 -1.390625l1.484375 1.15625q-1.78125 2.71875 -5.3125 2.71875zm-0.3125 -12.625q-1.453125 0 -2.4375 1.0625q-0.984375 1.046875 -1.21875 2.96875l7.046875 0l0 -0.1875q-0.109375 -1.828125 -1.0 -2.828125q-0.875 -1.015625 -2.390625 -1.015625zm10.856476 -1.71875l0.078125 1.765625q1.625 -2.03125 4.21875 -2.03125q4.46875 0 4.515625 5.03125l0 9.3125l-2.421875 0l0 -9.3125q0 -1.53125 -0.6875 -2.25q-0.6875 -0.734375 -2.125 -0.734375q-1.171875 0 -2.0625 0.625q-0.890625 0.625 -1.375 1.640625l0 10.03125l-2.40625 0l0 -14.078125l2.265625 0zm15.707794 -3.421875l0 3.421875l2.625 0l0 1.859375l-2.625 0l0 8.734375q0 0.84375 0.34375 1.265625q0.359375 0.421875 1.203125 0.421875q0.40625 0 1.140625 -0.15625l0 1.953125q-0.953125 0.265625 -1.84375 0.265625q-1.609375 0 -2.4375 -0.96875q-0.8125 -0.984375 -0.8125 -2.78125l0 -8.734375l-2.578125 0l0 -1.859375l2.578125 0l0 -3.421875l2.40625 0z" fill-rule="nonzero"/><path fill="#000000" d="m294.29492 169.42677l0 -12.21875l-2.21875 0l0 -1.859375l2.21875 0l0 -1.453125q0 -2.265625 1.203125 -3.5q1.21875 -1.234375 3.4375 -1.234375q0.828125 0 1.65625 0.21875l-0.140625 1.953125q-0.609375 -0.109375 -1.296875 -0.109375q-1.171875 0 -1.8125 0.6875q-0.625 0.671875 -0.625 1.953125l0 1.484375l3.0 0l0 1.859375l-3.0 0l0 12.21875l-2.421875 0zm16.769806 0q-0.203125 -0.421875 -0.34375 -1.484375q-1.671875 1.75 -4.0 1.75q-2.078125 0 -3.421875 -1.171875q-1.328125 -1.1875 -1.328125 -3.0q0 -2.203125 1.671875 -3.40625q1.671875 -1.21875 4.703125 -1.21875l2.34375 0l0 -1.109375q0 -1.265625 -0.765625 -2.015625q-0.75 -0.75 -2.21875 -0.75q-1.28125 0 -2.15625 0.65625q-0.875 0.640625 -0.875 1.578125l-2.421875 0q0 -1.0625 0.75 -2.046875q0.75 -0.984375 2.03125 -1.546875q1.28125 -0.578125 2.8125 -0.578125q2.4375 0 3.8125 1.21875q1.390625 1.21875 1.4375 3.34375l0 6.484375q0 1.9375 0.5 3.09375l0 0.203125l-2.53125 0zm-4.0 -1.828125q1.140625 0 2.15625 -0.578125q1.015625 -0.59375 1.46875 -1.53125l0 -2.890625l-1.890625 0q-4.421875 0 -4.421875 2.578125q0 1.140625 0.75 1.78125q0.765625 0.640625 1.9375 0.640625zm15.452667 0.125q1.296875 0 2.25 -0.78125q0.96875 -0.78125 1.078125 -1.953125l2.265625 0q-0.0625 1.203125 -0.828125 2.296875q-0.765625 1.09375 -2.046875 1.75q-1.28125 0.65625 -2.71875 0.65625q-2.875 0 -4.578125 -1.921875q-1.6875 -1.921875 -1.6875 -5.25l0 -0.40625q0 -2.0625 0.75 -3.65625q0.75 -1.609375 2.15625 -2.484375q1.421875 -0.890625 3.34375 -0.890625q2.375 0 3.9375 1.421875q1.578125 1.421875 1.671875 3.6875l-2.265625 0q-0.109375 -1.375 -1.046875 -2.25q-0.921875 -0.875 -2.296875 -0.875q-1.828125 0 -2.84375 1.328125q-1.0 1.3125 -1.0 3.8125l0 0.453125q0 2.4375 1.0 3.75q1.0 1.3125 2.859375 1.3125zm11.577881 -15.796875l0 3.421875l2.625 0l0 1.859375l-2.625 0l0 8.734375q0 0.84375 0.34375 1.265625q0.359375 0.421875 1.203125 0.421875q0.40625 0 1.140625 -0.15625l0 1.953125q-0.953125 0.265625 -1.84375 0.265625q-1.609375 0 -2.4375 -0.96875q-0.8125 -0.984375 -0.8125 -2.78125l0 -8.734375l-2.578125 0l0 -1.859375l2.578125 0l0 -3.421875l2.40625 0zm4.540863 10.328125q0 -2.0625 0.8125 -3.71875q0.8125 -1.65625 2.265625 -2.546875q1.453125 -0.90625 3.3125 -0.90625q2.875 0 4.640625 2.0q1.78125 1.984375 1.78125 5.296875l0 0.15625q0 2.0625 -0.78125 3.703125q-0.78125 1.625 -2.25 2.546875q-1.46875 0.90625 -3.375 0.90625q-2.859375 0 -4.640625 -1.984375q-1.765625 -2.0 -1.765625 -5.28125l0 -0.171875zm2.421875 0.28125q0 2.34375 1.078125 3.765625q1.09375 1.421875 2.90625 1.421875q1.84375 0 2.921875 -1.4375q1.078125 -1.4375 1.078125 -4.03125q0 -2.3125 -1.109375 -3.75q-1.09375 -1.4375 -2.90625 -1.4375q-1.78125 0 -2.875 1.421875q-1.09375 1.40625 -1.09375 4.046875zm20.218018 -5.03125q-0.546875 -0.09375 -1.1875 -0.09375q-2.359375 0 -3.203125 2.015625l0 10.0l-2.40625 0l0 -14.078125l2.34375 0l0.03125 1.625q1.1875 -1.890625 3.359375 -1.890625q0.703125 0 1.0625 0.1875l0 2.234375z" fill-rule="nonzero"/><path fill="#cfe2f3" d="m268.65616 433.55905l115.653564 0l0 119.37009l-115.653564 0z" fill-rule="evenodd"/><path fill="#000000" d="m321.514 491.1566l4.546875 -7.265625l2.9375 0l-5.984375 9.40625l6.140625 9.546875l-2.96875 0l-4.671875 -7.390625l-4.671875 7.390625l-2.96875 0l6.15625 -9.546875l-6.0 -9.40625l2.921875 0l4.5625 7.265625z" fill-rule="nonzero"/><path fill="#000000" d="m339.17935 512.8441l-8.28125 0l0 -1.1562805l4.375 -4.859375q0.96875 -1.09375 1.328125 -1.78125q0.375 -0.703125 0.375 -1.4375q0 -0.984375 -0.59375 -1.609375q-0.59375 -0.640625 -1.59375 -0.640625q-1.203125 0 -1.875 0.6875q-0.65625 0.671875 -0.65625 1.890625l-1.59375 0q0 -1.75 1.109375 -2.8125q1.125 -1.078125 3.015625 -1.078125q1.765625 0 2.78125 0.921875q1.03125 0.921875 1.03125 2.453125q0 1.859375 -2.390625 4.4375l-3.375 3.671875l6.34375 0l0 1.3125305z" fill-rule="nonzero"/><path fill="#cfe2f3" d="m35.952755 433.55905l115.653534 0l0 119.37009l-115.653534 0z" fill-rule="evenodd"/><path fill="#000000" d="m88.810585 491.1566l4.546875 -7.265625l2.9375 0l-5.984375 9.40625l6.140625 9.546875l-2.96875 0l-4.671875 -7.390625l-4.671875 7.390625l-2.96875 0l6.15625 -9.546875l-6.0 -9.40625l2.921875 0l4.5625 7.265625z" fill-rule="nonzero"/><path fill="#000000" d="m103.47594 512.8441l-1.625 0l0 -10.7031555l-3.2343826 1.203125l0 -1.46875l4.6093826 -1.71875l0.25 0l0 12.6875305z" fill-rule="nonzero"/><path fill="#cfe2f3" d="m501.3596 433.55905l115.653534 0l0 119.37009l-115.653534 0z" fill-rule="evenodd"/><path fill="#000000" d="m554.2174 491.1566l4.546875 -7.265625l2.9375 0l-5.984375 9.40625l6.140625 9.546875l-2.96875 0l-4.671875 -7.390625l-4.671875 7.390625l-2.96875 0l6.15625 -9.546875l-6.0 -9.40625l2.921875 0l4.5625 7.265625z" fill-rule="nonzero"/><path fill="#000000" d="m565.94525 505.75034l1.203125 0q1.125 -0.015625 1.78125 -0.59375q0.65625 -0.59375 0.65625 -1.578125q0 -2.21875 -2.21875 -2.21875q-1.03125 0 -1.65625 0.59375q-0.625 0.59375 -0.625 1.578125l-1.609375 0q0 -1.5 1.09375 -2.484375q1.109375 -1.0 2.796875 -1.0q1.78125 0 2.796875 0.953125q1.015625 0.9375 1.015625 2.609375q0 0.828125 -0.53125 1.609375q-0.53125 0.765625 -1.453125 1.140625q1.046875 0.328125 1.609375 1.09375q0.578125 0.765625 0.578125 1.875q0 1.6875 -1.125 2.6875305q-1.109375 1.0 -2.890625 1.0q-1.765625 0 -2.890625 -0.953125q-1.109375 -0.9687805 -1.109375 -2.5469055l1.609375 0q0 1.0 0.65625 1.59375q0.65625 0.59375 1.75 0.59375q1.15625 0 1.765625 -0.59375q0.625 -0.609375 0.625 -1.75q0 -1.109375 -0.6875 -1.6875q-0.671875 -0.59375 -1.9375 -0.609375l-1.203125 0l0 -1.3125z" fill-rule="nonzero"/><path fill="#000000" fill-opacity="0.0" d="m326.48294 222.17323l-232.69292 211.40157" fill-rule="evenodd"/><path stroke="#000000" stroke-width="3.0" stroke-linejoin="round" stroke-linecap="butt" d="m326.48294 222.17323l-219.37009 199.29778" fill-rule="evenodd"/><path fill="#000000" stroke="#000000" stroke-width="3.0" stroke-linecap="butt" d="m103.78082 417.80338l-6.7446823 12.822327l13.40876 -5.4870605z" fill-rule="evenodd"/><path fill="#000000" fill-opacity="0.0" d="m326.48294 222.17323l0 211.40157" fill-rule="evenodd"/><path stroke="#000000" stroke-width="3.0" stroke-linejoin="round" stroke-linecap="butt" d="m326.48294 222.17323l0 193.40157" fill-rule="evenodd"/><path fill="#000000" stroke="#000000" stroke-width="3.0" stroke-linecap="butt" d="m321.52774 415.5748l4.9552 13.614288l4.9552 -13.614288z" fill-rule="evenodd"/><path fill="#000000" fill-opacity="0.0" d="m326.48294 222.17323l232.6929 211.40157" fill-rule="evenodd"/><path stroke="#000000" stroke-width="3.0" stroke-linejoin="round" stroke-linecap="butt" d="m326.48294 222.17323l219.37009 199.29778" fill-rule="evenodd"/><path fill="#000000" stroke="#000000" stroke-width="3.0" stroke-linecap="butt" d="m542.521 425.13864l13.408752 5.4870605l-6.74469 -12.822327z" fill-rule="evenodd"/><path fill="#000000" fill-opacity="0.0" d="m266.2508 88.42746c0 -36.96701 30.118134 -73.941895 60.236237 -73.93402c30.118103 0.007874489 60.236206 36.99851 60.236206 73.99702" fill-rule="evenodd"/><path stroke="#000000" stroke-width="3.0" stroke-linejoin="round" stroke-linecap="butt" d="m268.50696 70.56942l0.042877197 -0.17394257c0.07086182 -0.281044 0.14324951 -0.5617218 0.2171936 -0.8420181c0.14788818 -0.5605774 0.30181885 -1.1195984 0.46176147 -1.6769333c0.6397095 -2.2293472 1.375 -4.431629 2.1985474 -6.5978203c3.2941895 -8.664757 8.000122 -16.75203 13.647278 -23.683838c11.294281 -13.863615 26.353363 -23.105366 41.412415 -23.101429c15.0590515 0.0039367676 30.118134 9.253563 41.412415 23.127018c5.647156 6.9367332 10.353088 15.029415 13.647278 23.700329c0.82351685 2.1677246 1.5588379 4.3715897 2.1985474 6.6025696c0.15991211 0.5577469 0.3138733 1.1171875 0.46176147 1.6781769c0.07394409 0.2804947 0.14630127 0.5613785 0.21722412 0.8426361l0.046203613 0.18782043" fill-rule="evenodd"/><path fill="#000000" stroke="#000000" stroke-width="3.0" stroke-linecap="butt" d="m263.59085 69.948326l3.2096558 14.128021l6.622589 -12.885834z" fill-rule="evenodd"/><path fill="#000000" stroke="#000000" stroke-width="3.0" stroke-linecap="butt" d="m379.55423 71.25215l6.6201477 12.887077l3.2123413 -14.127411z" fill-rule="evenodd"/><path fill="#000000" fill-opacity="0.0" d="m134.26772 286.6378l67.08661 0l0 51.716553l-67.08661 0z" fill-rule="evenodd"/><path fill="#000000" d="m162.86308 310.90967l-3.875 10.328125l-2.46875 0l5.125 -13.5625l-2.046875 -5.515625l2.46875 0l7.125 19.078125l-2.46875 0l-3.859375 -10.328125z" fill-rule="nonzero"/><path fill="#000000" d="m176.15996 331.2378l-1.5625 0l0 -9.953125q-0.5625 0.546875 -1.484375 1.078125q-0.921875 0.53125 -1.640625 0.8125l0 -1.515625q1.3125 -0.609375 2.28125 -1.484375q0.984375 -0.875 1.390625 -1.703125l1.015625 0l0 12.765625z" fill-rule="nonzero"/><path fill="#000000" fill-opacity="0.0" d="m275.6168 286.6378l67.08661 0l0 51.716553l-67.08661 0z" fill-rule="evenodd"/><path fill="#000000" d="m304.21216 310.90967l-3.875 10.328125l-2.46875 0l5.125 -13.5625l-2.046875 -5.515625l2.46875 0l7.125 19.078125l-2.46875 0l-3.859375 -10.328125z" fill-rule="nonzero"/><path fill="#000000" d="m319.82153 329.7378l0 1.5l-8.40625 0q-0.015625 -0.5625 0.1875 -1.078125q0.328125 -0.859375 1.03125 -1.6875q0.703125 -0.84375 2.046875 -1.9375q2.0625 -1.703125 2.796875 -2.6875q0.734375 -1.0 0.734375 -1.875q0 -0.9375 -0.671875 -1.5625q-0.65625 -0.640625 -1.734375 -0.640625q-1.125 0 -1.796875 0.671875q-0.671875 0.671875 -0.6875 1.875l-1.609375 -0.171875q0.171875 -1.796875 1.25 -2.734375q1.078125 -0.9375 2.890625 -0.9375q1.828125 0 2.890625 1.015625q1.0625 1.015625 1.0625 2.515625q0 0.765625 -0.3125 1.5q-0.3125 0.734375 -1.03125 1.546875q-0.71875 0.8125 -2.40625 2.234375q-1.40625 1.1875 -1.8125 1.609375q-0.390625 0.421875 -0.65625 0.84375l6.234375 0z" fill-rule="nonzero"/><path fill="#000000" fill-opacity="0.0" d="m434.27298 286.6378l67.08661 0l0 51.716553l-67.08661 0z" fill-rule="evenodd"/><path fill="#000000" d="m462.86835 310.90967l-3.875 10.328125l-2.46875 0l5.125 -13.5625l-2.046875 -5.515625l2.46875 0l7.125 19.078125l-2.46875 0l-3.859375 -10.328125z" fill-rule="nonzero"/><path fill="#000000" d="m470.29022 327.87842l1.5625 -0.203125q0.265625 1.328125 0.90625 1.921875q0.65625 0.578125 1.578125 0.578125q1.109375 0 1.859375 -0.765625q0.765625 -0.765625 0.765625 -1.890625q0 -1.078125 -0.703125 -1.765625q-0.703125 -0.703125 -1.796875 -0.703125q-0.4375 0 -1.09375 0.171875l0.171875 -1.375q0.15625 0.015625 0.25 0.015625q1.0 0 1.796875 -0.515625q0.796875 -0.53125 0.796875 -1.609375q0 -0.859375 -0.578125 -1.421875q-0.578125 -0.5625 -1.5 -0.5625q-0.921875 0 -1.53125 0.578125q-0.59375 0.5625 -0.765625 1.71875l-1.5625 -0.28125q0.28125 -1.578125 1.296875 -2.4375q1.015625 -0.859375 2.53125 -0.859375q1.03125 0 1.90625 0.453125q0.875 0.4375 1.34375 1.21875q0.46875 0.765625 0.46875 1.625q0 0.828125 -0.453125 1.515625q-0.4375 0.671875 -1.296875 1.0625q1.125 0.265625 1.75 1.09375q0.625 0.8125 0.625 2.046875q0 1.65625 -1.21875 2.8125q-1.21875 1.15625 -3.078125 1.15625q-1.671875 0 -2.78125 -0.984375q-1.09375 -1.0 -1.25 -2.59375z" fill-rule="nonzero"/><path fill="#cfe2f3" d="m59.984253 648.1942l0 0c0 -18.664612 15.130661 -33.795288 33.795273 -33.795288l0 0c8.963066 0 17.559029 3.560608 23.896873 9.8984375c6.337837 6.3378296 9.898407 14.933777 9.898407 23.89685l0 0c0 18.664612 -15.130661 33.795288 -33.79528 33.795288l0 0c-18.664612 0 -33.795273 -15.130676 -33.795273 -33.795288z" fill-rule="evenodd"/><path fill="#000000" d="m89.40253 658.0599q-2.875 0 -4.671875 -1.875q-1.796875 -1.890625 -1.796875 -5.046875l0 -0.4375q0 -2.09375 0.796875 -3.734375q0.8125 -1.65625 2.25 -2.578125q1.4375 -0.9375 3.109375 -0.9375q2.75 0 4.265625 1.8125q1.53125 1.8125 1.53125 5.171875l0 1.0l-9.53125 0q0.046875 2.09375 1.203125 3.375q1.171875 1.28125 2.96875 1.28125q1.28125 0 2.15625 -0.515625q0.890625 -0.53125 1.546875 -1.390625l1.484375 1.15625q-1.78125 2.71875 -5.3125 2.71875zm-0.3125 -12.625q-1.453125 0 -2.4375 1.0625q-0.984375 1.046875 -1.21875 2.96875l7.046875 0l0 -0.1875q-0.109375 -1.828125 -1.0 -2.828125q-0.875 -1.015625 -2.390625 -1.015625z" fill-rule="nonzero"/><path fill="#000000" d="m102.18086 667.79425l-1.625 0l0 -10.703125l-3.234375 1.203125l0 -1.46875l4.609375 -1.71875l0.25 0l0 12.6875z" fill-rule="nonzero"/><path fill="#cfe2f3" d="m292.24146 648.1942l0 0c0 -18.664612 15.130676 -33.795288 33.795288 -33.795288l0 0c8.963074 0 17.559021 3.560608 23.896881 9.8984375c6.3378296 6.3378296 9.898407 14.933777 9.898407 23.89685l0 0c0 18.664612 -15.130676 33.795288 -33.795288 33.795288l0 0c-18.664612 0 -33.795288 -15.130676 -33.795288 -33.795288z" fill-rule="evenodd"/><path fill="#000000" d="m321.65976 658.0599q-2.875 0 -4.671875 -1.875q-1.796875 -1.890625 -1.796875 -5.046875l0 -0.4375q0 -2.09375 0.796875 -3.734375q0.8125 -1.65625 2.25 -2.578125q1.4375 -0.9375 3.109375 -0.9375q2.75 0 4.265625 1.8125q1.53125 1.8125 1.53125 5.171875l0 1.0l-9.53125 0q0.046875 2.09375 1.203125 3.375q1.171875 1.28125 2.96875 1.28125q1.28125 0 2.15625 -0.515625q0.890625 -0.53125 1.546875 -1.390625l1.484375 1.15625q-1.78125 2.71875 -5.3125 2.71875zm-0.3125 -12.625q-1.453125 0 -2.4375 1.0625q-0.984375 1.046875 -1.21875 2.96875l7.046875 0l0 -0.1875q-0.109375 -1.828125 -1.0 -2.828125q-0.875 -1.015625 -2.390625 -1.015625z" fill-rule="nonzero"/><path fill="#000000" d="m337.43808 667.79425l-8.28125 0l0 -1.15625l4.375 -4.859375q0.96875 -1.09375 1.328125 -1.78125q0.375 -0.703125 0.375 -1.4375q0 -0.984375 -0.59375 -1.609375q-0.59375 -0.640625 -1.59375 -0.640625q-1.203125 0 -1.875 0.6875q-0.65625 0.671875 -0.65625 1.890625l-1.59375 0q0 -1.75 1.109375 -2.8125q1.125 -1.078125 3.015625 -1.078125q1.765625 0 2.78125 0.921875q1.03125 0.921875 1.03125 2.453125q0 1.859375 -2.390625 4.4375l-3.375 3.671875l6.34375 0l0 1.3125z" fill-rule="nonzero"/><path fill="#cfe2f3" d="m525.39105 648.1942l0 0c0 -18.664612 15.130676 -33.795288 33.795288 -33.795288l0 0c8.963074 0 17.559021 3.560608 23.89685 9.8984375c6.3378906 6.3378296 9.8984375 14.933777 9.8984375 23.89685l0 0c0 18.664612 -15.130676 33.795288 -33.795288 33.795288l0 0c-18.664612 0 -33.795288 -15.130676 -33.795288 -33.795288z" fill-rule="evenodd"/><path fill="#000000" d="m554.8093 658.0599q-2.875 0 -4.671875 -1.875q-1.796875 -1.890625 -1.796875 -5.046875l0 -0.4375q0 -2.09375 0.796875 -3.734375q0.8125 -1.65625 2.25 -2.578125q1.4375 -0.9375 3.109375 -0.9375q2.75 0 4.265625 1.8125q1.53125 1.8125 1.53125 5.171875l0 1.0l-9.53125 0q0.046875 2.09375 1.203125 3.375q1.171875 1.28125 2.96875 1.28125q1.28125 0 2.15625 -0.515625q0.890625 -0.53125 1.546875 -1.390625l1.484375 1.15625q-1.78125 2.71875 -5.3125 2.71875zm-0.3125 -12.625q-1.453125 0 -2.4375 1.0625q-0.984375 1.046875 -1.21875 2.96875l7.046875 0l0 -0.1875q-0.109375 -1.828125 -1.0 -2.828125q-0.875 -1.015625 -2.390625 -1.015625z" fill-rule="nonzero"/><path fill="#000000" d="m564.6502 660.7005l1.203125 0q1.125 -0.015625 1.78125 -0.59375q0.65625 -0.59375 0.65625 -1.578125q0 -2.21875 -2.21875 -2.21875q-1.03125 0 -1.65625 0.59375q-0.625 0.59375 -0.625 1.578125l-1.609375 0q0 -1.5 1.09375 -2.484375q1.109375 -1.0 2.796875 -1.0q1.78125 0 2.796875 0.953125q1.015625 0.9375 1.015625 2.609375q0 0.828125 -0.53125 1.609375q-0.53125 0.765625 -1.453125 1.140625q1.046875 0.328125 1.609375 1.09375q0.578125 0.765625 0.578125 1.875q0 1.6875 -1.125 2.6875q-1.109375 1.0 -2.890625 1.0q-1.765625 0 -2.890625 -0.953125q-1.109375 -0.96875 -1.109375 -2.546875l1.609375 0q0 1.0 0.65625 1.59375q0.65625 0.59375 1.75 0.59375q1.15625 0 1.765625 -0.59375q0.625 -0.609375 0.625 -1.75q0 -1.109375 -0.6875 -1.6875q-0.671875 -0.59375 -1.9375 -0.609375l-1.203125 0l0 -1.3125z" fill-rule="nonzero"/><path fill="#000000" fill-opacity="0.0" d="m93.779526 614.3989l0 -61.480286" fill-rule="evenodd"/><path stroke="#000000" stroke-width="2.0" stroke-linejoin="round" stroke-linecap="butt" d="m93.779526 614.3989l0 -49.480286" fill-rule="evenodd"/><path fill="#000000" stroke="#000000" stroke-width="2.0" stroke-linecap="butt" d="m97.08299 564.91864l-3.3034668 -9.076172l-3.3034668 9.076172z" fill-rule="evenodd"/><path fill="#000000" fill-opacity="0.0" d="m326.03674 614.3989l0.4409485 -61.480286" fill-rule="evenodd"/><path stroke="#000000" stroke-width="2.0" stroke-linejoin="round" stroke-linecap="butt" d="m326.03674 614.3989l0.35488892 -49.48059" fill-rule="evenodd"/><path fill="#000000" stroke="#000000" stroke-width="2.0" stroke-linecap="butt" d="m329.695 564.942l-3.2382812 -9.09967l-3.3684692 9.052307z" fill-rule="evenodd"/><path fill="#000000" fill-opacity="0.0" d="m559.18634 614.3989l0 -61.480286" fill-rule="evenodd"/><path stroke="#000000" stroke-width="2.0" stroke-linejoin="round" stroke-linecap="butt" d="m559.18634 614.3989l0 -49.480286" fill-rule="evenodd"/><path fill="#000000" stroke="#000000" stroke-width="2.0" stroke-linecap="butt" d="m562.4898 564.91864l-3.3034668 -9.076172l-3.3034668 9.076172z" fill-rule="evenodd"/><path fill="#000000" fill-opacity="0.0" d="m309.37534 14.493439l33.322815 0l0 42.015747l-33.322815 0z" fill-rule="evenodd"/><path fill="#000000" d="m325.01596 41.413437l-1.6875 0l0 -11.234375l-3.40625 1.25l0 -1.53125l4.828125 -1.8125l0.265625 0l0 13.328125z" fill-rule="nonzero"/></g></svg>