<?xml version="1.0" encoding="UTF-8"?>
<svg xmlns="http://www.w3.org/2000/svg" xmlns:xlink="http://www.w3.org/1999/xlink" width="288pt" height="288pt" viewBox="0 0 288 288">
<rect x="-28.8" y="-28.8" width="345.6" height="345.6" fill="rgb(100%, 100%, 100%)" fill-opacity="1"/>
<path fill-rule="nonzero" fill="rgb(39.607843%, 60.784314%, 36.862745%)" fill-opacity="0.8" d="M 33.898438 251.476562 L 36.261719 250.964844 L 38.625 250.367188 L 40.988281 249.671875 L 43.347656 248.863281 L 45.710938 247.929688 L 48.074219 246.859375 L 50.4375 245.628906 L 52.800781 244.230469 L 55.164062 242.636719 L 57.527344 240.835938 L 59.890625 238.8125 L 62.253906 236.539062 L 64.617188 234 L 66.980469 231.175781 L 69.34375 228.050781 L 71.707031 224.605469 L 74.070312 220.824219 L 76.433594 216.691406 L 78.796875 212.199219 L 81.160156 207.335938 L 83.523438 202.097656 L 85.886719 196.480469 L 88.25 190.480469 L 90.613281 184.113281 L 92.972656 177.382812 L 95.335938 170.308594 L 97.699219 162.914062 L 100.0625 155.21875 L 102.425781 147.261719 L 104.789062 139.078125 L 107.152344 130.714844 L 109.515625 122.214844 L 111.878906 113.640625 L 114.242188 105.042969 L 116.605469 96.488281 L 118.96875 88.042969 L 121.332031 79.773438 L 123.695312 71.75 L 126.058594 64.042969 L 128.421875 56.71875 L 130.785156 49.851562 L 133.148438 43.507812 L 135.511719 37.742188 L 137.875 32.621094 L 140.238281 28.191406 L 142.601562 24.5 L 144.960938 21.589844 L 147.324219 19.488281 L 149.6875 18.21875 L 152.050781 17.792969 L 154.414062 18.21875 L 156.777344 19.488281 L 159.140625 21.589844 L 161.503906 24.5 L 163.867188 28.191406 L 166.230469 32.621094 L 168.59375 37.742188 L 170.957031 43.507812 L 173.320312 49.851562 L 175.683594 56.71875 L 178.046875 64.042969 L 180.410156 71.75 L 182.773438 79.773438 L 185.136719 88.042969 L 187.5 96.488281 L 189.863281 105.042969 L 192.226562 113.640625 L 194.585938 122.214844 L 196.949219 130.714844 L 199.3125 139.078125 L 201.675781 147.261719 L 204.039062 155.21875 L 206.402344 162.914062 L 208.765625 170.308594 L 211.128906 177.382812 L 213.492188 184.113281 L 215.855469 190.480469 L 218.21875 196.480469 L 220.582031 202.097656 L 222.945312 207.335938 L 225.308594 212.199219 L 227.671875 216.691406 L 230.035156 220.824219 L 232.398438 224.605469 L 234.761719 228.050781 L 237.125 231.175781 L 239.488281 234 L 241.851562 236.539062 L 244.210938 238.8125 L 246.574219 240.835938 L 248.9375 242.636719 L 251.300781 244.230469 L 253.664062 245.628906 L 256.027344 246.859375 L 258.390625 247.929688 L 260.753906 248.863281 L 263.117188 249.671875 L 265.480469 250.367188 L 267.84375 250.964844 L 270.207031 251.476562 L 270.207031 254.101562 L 33.898438 254.101562 Z M 33.898438 251.476562 "/>
<path fill="none" stroke-width="1.163976" stroke-linecap="butt" stroke-linejoin="round" stroke="rgb(33.333333%, 43.529412%, 26.666667%)" stroke-opacity="1" stroke-miterlimit="10" d="M 33.898438 251.476562 L 36.261719 250.964844 L 38.625 250.367188 L 40.988281 249.671875 L 43.347656 248.863281 L 45.710938 247.929688 L 48.074219 246.859375 L 50.4375 245.628906 L 52.800781 244.230469 L 55.164062 242.636719 L 57.527344 240.835938 L 59.890625 238.8125 L 62.253906 236.539062 L 64.617188 234 L 66.980469 231.175781 L 69.34375 228.050781 L 71.707031 224.605469 L 74.070312 220.824219 L 76.433594 216.691406 L 78.796875 212.199219 L 81.160156 207.335938 L 83.523438 202.097656 L 85.886719 196.480469 L 88.25 190.480469 L 90.613281 184.113281 L 92.972656 177.382812 L 95.335938 170.308594 L 97.699219 162.914062 L 100.0625 155.21875 L 102.425781 147.261719 L 104.789062 139.078125 L 107.152344 130.714844 L 109.515625 122.214844 L 111.878906 113.640625 L 114.242188 105.042969 L 116.605469 96.488281 L 118.96875 88.042969 L 121.332031 79.773438 L 123.695312 71.75 L 126.058594 64.042969 L 128.421875 56.71875 L 130.785156 49.851562 L 133.148438 43.507812 L 135.511719 37.742188 L 137.875 32.621094 L 140.238281 28.191406 L 142.601562 24.5 L 144.960938 21.589844 L 147.324219 19.488281 L 149.6875 18.21875 L 152.050781 17.792969 L 154.414062 18.21875 L 156.777344 19.488281 L 159.140625 21.589844 L 161.503906 24.5 L 163.867188 28.191406 L 166.230469 32.621094 L 168.59375 37.742188 L 170.957031 43.507812 L 173.320312 49.851562 L 175.683594 56.71875 L 178.046875 64.042969 L 180.410156 71.75 L 182.773438 79.773438 L 185.136719 88.042969 L 187.5 96.488281 L 189.863281 105.042969 L 192.226562 113.640625 L 194.585938 122.214844 L 196.949219 130.714844 L 199.3125 139.078125 L 201.675781 147.261719 L 204.039062 155.21875 L 206.402344 162.914062 L 208.765625 170.308594 L 211.128906 177.382812 L 213.492188 184.113281 L 215.855469 190.480469 L 218.21875 196.480469 L 220.582031 202.097656 L 222.945312 207.335938 L 225.308594 212.199219 L 227.671875 216.691406 L 230.035156 220.824219 L 232.398438 224.605469 L 234.761719 228.050781 L 237.125 231.175781 L 239.488281 234 L 241.851562 236.539062 L 244.210938 238.8125 L 246.574219 240.835938 L 248.9375 242.636719 L 251.300781 244.230469 L 253.664062 245.628906 L 256.027344 246.859375 L 258.390625 247.929688 L 260.753906 248.863281 L 263.117188 249.671875 L 265.480469 250.367188 L 267.84375 250.964844 L 270.207031 251.476562 "/>
<path fill="none" stroke-width="1.163976" stroke-linecap="butt" stroke-linejoin="round" stroke="rgb(33.333333%, 43.529412%, 26.666667%)" stroke-opacity="1" stroke-miterlimit="10" d="M 270.207031 254.101562 L 33.898438 254.101562 "/>
<path fill="none" stroke-width="1.066978" stroke-linecap="butt" stroke-linejoin="round" stroke="rgb(0%, 0%, 0%)" stroke-opacity="1" stroke-miterlimit="10" d="M 22.082031 265.917969 L 282.023438 265.917969 "/>
</svg>
