<svg version="1.1" viewBox="0.0 0.0 842.6089238845144 283.9002624671916" fill="none" stroke="none" stroke-linecap="square" stroke-miterlimit="10" xmlns:xlink="http://www.w3.org/1999/xlink" xmlns="http://www.w3.org/2000/svg"><clipPath id="p.0"><path d="m0 0l842.60895 0l0 283.90027l-842.60895 0l0 -283.90027z" clip-rule="nonzero"/></clipPath><g clip-path="url(#p.0)"><path fill="#000000" fill-opacity="0.0" d="m0 0l842.60895 0l0 283.90027l-842.60895 0z" fill-rule="evenodd"/><path fill="#ffffff" d="m89.997375 93.08399l175.90552 0l0 97.73228l-175.90552 0z" fill-rule="evenodd"/><path stroke="#6aa84f" stroke-width="3.0" stroke-linejoin="round" stroke-linecap="butt" d="m89.997375 93.08399l175.90552 0l0 97.73228l-175.90552 0z" fill-rule="evenodd"/><path fill="#000000" d="m114.87201 143.80263l0 6.6875l-2.25 0l0 -17.0625l6.296875 0q2.796875 0 4.375 1.4375q1.59375 1.421875 1.59375 3.78125q0 2.484375 -1.5625 3.828125q-1.546875 1.328125 -4.4375 1.328125l-4.015625 0zm0 -1.828125l4.046875 0q1.796875 0 2.75 -0.84375q0.96875 -0.859375 0.96875 -2.46875q0 -1.515625 -0.96875 -2.421875q-0.953125 -0.921875 -2.625 -0.96875l-4.171875 0l0 6.703125zm18.671875 -2.21875q-0.484375 -0.078125 -1.0625 -0.078125q-2.125 0 -2.890625 1.8125l0 9.0l-2.171875 0l0 -12.6875l2.109375 0l0.03125 1.46875q1.078125 -1.703125 3.03125 -1.703125q0.625 0 0.953125 0.171875l0 2.015625zm7.0390625 10.96875q-2.578125 0 -4.203125 -1.6875q-1.609375 -1.703125 -1.609375 -4.53125l0 -0.40625q0 -1.890625 0.71875 -3.359375q0.71875 -1.484375 2.015625 -2.328125q1.296875 -0.84375 2.8125 -0.84375q2.46875 0 3.828125 1.640625q1.375 1.625 1.375 4.65625l0 0.90625l-8.578125 0q0.046875 1.875 1.09375 3.03125q1.046875 1.15625 2.65625 1.15625q1.15625 0 1.953125 -0.46875q0.796875 -0.46875 1.390625 -1.25l1.328125 1.03125q-1.59375 2.453125 -4.78125 2.453125zm-0.265625 -11.375q-1.3125 0 -2.203125 0.96875q-0.890625 0.953125 -1.109375 2.671875l6.359375 0l0 -0.171875q-0.09375 -1.640625 -0.890625 -2.546875q-0.796875 -0.921875 -2.15625 -0.921875zm7.1835938 4.6875q0 -2.90625 1.375 -4.6875q1.390625 -1.78125 3.640625 -1.78125q2.21875 0 3.515625 1.53125l0 -6.609375l2.171875 0l0 18.0l-1.984375 0l-0.109375 -1.359375q-1.296875 1.59375 -3.625 1.59375q-2.203125 0 -3.59375 -1.796875q-1.390625 -1.8125 -1.390625 -4.71875l0 -0.171875zm2.171875 0.25q0 2.15625 0.890625 3.375q0.890625 1.21875 2.46875 1.21875q2.0625 0 3.0 -1.84375l0 -5.828125q-0.96875 -1.796875 -2.984375 -1.796875q-1.59375 0 -2.484375 1.234375q-0.890625 1.234375 -0.890625 3.640625zm14.253906 6.203125l-2.171875 0l0 -12.6875l2.171875 0l0 12.6875zm-2.34375 -16.046875q0 -0.53125 0.3125 -0.890625q0.328125 -0.359375 0.953125 -0.359375q0.640625 0 0.96875 0.359375q0.328125 0.359375 0.328125 0.890625q0 0.53125 -0.328125 0.890625q-0.328125 0.34375 -0.96875 0.34375q-0.625 0 -0.953125 -0.34375q-0.3125 -0.359375 -0.3125 -0.890625zm10.902344 14.515625q1.15625 0 2.015625 -0.703125q0.875 -0.703125 0.96875 -1.765625l2.046875 0q-0.0625 1.09375 -0.75 2.078125q-0.6875 0.984375 -1.84375 1.578125q-1.15625 0.578125 -2.4375 0.578125q-2.59375 0 -4.125 -1.71875q-1.53125 -1.734375 -1.53125 -4.734375l0 -0.375q0 -1.84375 0.671875 -3.28125q0.6875 -1.453125 1.953125 -2.25q1.28125 -0.796875 3.015625 -0.796875q2.125 0 3.53125 1.28125q1.421875 1.28125 1.515625 3.3125l-2.046875 0q-0.09375 -1.21875 -0.9375 -2.015625q-0.828125 -0.796875 -2.0625 -0.796875q-1.65625 0 -2.5625 1.203125q-0.90625 1.1875 -0.90625 3.4375l0 0.40625q0 2.1875 0.890625 3.375q0.90625 1.1875 2.59375 1.1875zm10.40625 -14.21875l0 3.0625l2.375 0l0 1.6875l-2.375 0l0 7.859375q0 0.765625 0.3125 1.140625q0.328125 0.375 1.09375 0.375q0.375 0 1.03125 -0.140625l0 1.765625q-0.859375 0.234375 -1.671875 0.234375q-1.453125 0 -2.1875 -0.875q-0.734375 -0.890625 -0.734375 -2.5l0 -7.859375l-2.3125 0l0 -1.6875l2.3125 0l0 -3.0625l2.15625 0zm4.0898438 9.296875q0 -1.875 0.734375 -3.359375q0.734375 -1.484375 2.03125 -2.296875q1.3125 -0.8125 3.0 -0.8125q2.578125 0 4.171875 1.796875q1.609375 1.796875 1.609375 4.765625l0 0.15625q0 1.859375 -0.71875 3.328125q-0.703125 1.46875 -2.015625 2.296875q-1.3125 0.8125 -3.03125 0.8125q-2.578125 0 -4.1875 -1.796875q-1.59375 -1.796875 -1.59375 -4.75l0 -0.140625zm2.1875 0.25q0 2.109375 0.96875 3.390625q0.984375 1.28125 2.625 1.28125q1.65625 0 2.625 -1.296875q0.96875 -1.296875 0.96875 -3.625q0 -2.09375 -0.984375 -3.390625q-0.984375 -1.296875 -2.625 -1.296875q-1.609375 0 -2.59375 1.28125q-0.984375 1.28125 -0.984375 3.65625zm18.203125 -4.53125q-0.484375 -0.078125 -1.0625 -0.078125q-2.125 0 -2.890625 1.8125l0 9.0l-2.171875 0l0 -12.6875l2.109375 0l0.03125 1.46875q1.078125 -1.703125 3.03125 -1.703125q0.625 0 0.953125 0.171875l0 2.015625zm7.859375 3.8125q0 -2.65625 0.703125 -5.09375q0.71875 -2.4375 2.125 -4.421875q1.40625 -2.0 2.90625 -2.8125l0.453125 1.421875q-1.71875 1.3125 -2.8125 4.015625q-1.09375 2.6875 -1.203125 6.03125l0 1.0q0 4.515625 1.640625 7.84375q1.0 2.0 2.375 3.125l-0.453125 1.328125q-1.546875 -0.875 -2.96875 -2.90625q-2.765625 -4.0 -2.765625 -9.53125zm14.1875 -3.609375l4.09375 -6.53125l2.640625 0l-5.390625 8.453125l5.53125 8.609375l-2.671875 0l-4.203125 -6.65625l-4.21875 6.65625l-2.65625 0l5.53125 -8.609375l-5.40625 -8.453125l2.640625 0l4.109375 6.53125zm14.140625 3.71875q0 2.609375 -0.6875 5.015625q-0.671875 2.390625 -2.09375 4.421875q-1.40625 2.03125 -2.953125 2.890625l-0.453125 -1.328125q1.796875 -1.390625 2.890625 -4.296875q1.09375 -2.921875 1.125 -6.46875l0 -0.375q0 -2.453125 -0.515625 -4.5625q-0.515625 -2.125 -1.4375 -3.796875q-0.921875 -1.6875 -2.0625 -2.625l0.453125 -1.3125q1.546875 0.84375 2.9375 2.859375q1.40625 2.0 2.09375 4.421875q0.703125 2.40625 0.703125 5.15625z" fill-rule="nonzero"/><path fill="#ffffff" d="m576.70605 93.08399l175.90552 0l0 97.73228l-175.90552 0z" fill-rule="evenodd"/><path stroke="#6aa84f" stroke-width="3.0" stroke-linejoin="round" stroke-linecap="butt" d="m576.70605 93.08399l175.90552 0l0 97.73228l-175.90552 0z" fill-rule="evenodd"/><path fill="#000000" d="m612.28577 142.50575q0 2.515625 -0.84375 4.390625q-0.84375 1.859375 -2.390625 2.84375q-1.546875 0.984375 -3.609375 0.984375q-2.015625 0 -3.578125 -0.984375q-1.5625 -1.0 -2.421875 -2.828125q-0.859375 -1.84375 -0.875 -4.25l0 -1.234375q0 -2.453125 0.84375 -4.34375q0.859375 -1.890625 2.421875 -2.890625q1.5625 -1.0 3.578125 -1.0q2.0625 0 3.625 1.0q1.5625 0.984375 2.40625 2.859375q0.84375 1.875 0.84375 4.375l0 1.078125zm-2.234375 -1.09375q0 -3.046875 -1.21875 -4.65625q-1.21875 -1.625 -3.421875 -1.625q-2.125 0 -3.359375 1.625q-1.21875 1.609375 -1.25 4.5l0 1.25q0 2.9375 1.234375 4.625q1.234375 1.6875 3.40625 1.6875q2.171875 0 3.359375 -1.59375q1.203125 -1.59375 1.25 -4.546875l0 -1.265625zm13.09375 7.828125q-1.265625 1.484375 -3.71875 1.484375q-2.015625 0 -3.078125 -1.171875q-1.0625 -1.1875 -1.078125 -3.5l0 -8.25l2.171875 0l0 8.203125q0 2.875 2.34375 2.875q2.484375 0 3.296875 -1.84375l0 -9.234375l2.171875 0l0 12.6875l-2.0625 0l-0.046875 -1.25zm8.339844 -14.5l0 3.0625l2.375 0l0 1.6875l-2.375 0l0 7.859375q0 0.765625 0.3125 1.140625q0.328125 0.375 1.09375 0.375q0.375 0 1.03125 -0.140625l0 1.765625q-0.859375 0.234375 -1.671875 0.234375q-1.453125 0 -2.1875 -0.875q-0.734375 -0.890625 -0.734375 -2.5l0 -7.859375l-2.3125 0l0 -1.6875l2.3125 0l0 -3.0625l2.15625 0zm9.996094 14.21875q1.15625 0 2.015625 -0.703125q0.875 -0.703125 0.96875 -1.765625l2.046875 0q-0.0625 1.09375 -0.75 2.078125q-0.6875 0.984375 -1.84375 1.578125q-1.15625 0.578125 -2.4375 0.578125q-2.59375 0 -4.125 -1.71875q-1.53125 -1.734375 -1.53125 -4.734375l0 -0.375q0 -1.84375 0.671875 -3.28125q0.6875 -1.453125 1.953125 -2.25q1.28125 -0.796875 3.015625 -0.796875q2.125 0 3.53125 1.28125q1.421875 1.28125 1.515625 3.3125l-2.046875 0q-0.09375 -1.21875 -0.9375 -2.015625q-0.828125 -0.796875 -2.0625 -0.796875q-1.65625 0 -2.5625 1.203125q-0.90625 1.1875 -0.90625 3.4375l0 0.40625q0 2.1875 0.890625 3.375q0.90625 1.1875 2.59375 1.1875zm6.890625 -4.921875q0 -1.875 0.734375 -3.359375q0.734375 -1.484375 2.03125 -2.296875q1.3125 -0.8125 3.0 -0.8125q2.578125 0 4.171875 1.796875q1.609375 1.796875 1.609375 4.765625l0 0.15625q0 1.859375 -0.71875 3.328125q-0.703125 1.46875 -2.015625 2.296875q-1.3125 0.8125 -3.03125 0.8125q-2.578125 0 -4.1875 -1.796875q-1.59375 -1.796875 -1.59375 -4.75l0 -0.140625zm2.1875 0.25q0 2.109375 0.96875 3.390625q0.984375 1.28125 2.625 1.28125q1.65625 0 2.625 -1.296875q0.96875 -1.296875 0.96875 -3.625q0 -2.09375 -0.984375 -3.390625q-0.984375 -1.296875 -2.625 -1.296875q-1.609375 0 -2.59375 1.28125q-0.984375 1.28125 -0.984375 3.65625zm14.125 -6.484375l0.046875 1.40625q1.40625 -1.640625 3.765625 -1.640625q2.65625 0 3.625 2.046875q0.625 -0.921875 1.640625 -1.484375q1.015625 -0.5625 2.40625 -0.5625q4.171875 0 4.234375 4.421875l0 8.5l-2.171875 0l0 -8.375q0 -1.359375 -0.625 -2.03125q-0.609375 -0.671875 -2.078125 -0.671875q-1.203125 0 -2.0 0.71875q-0.796875 0.71875 -0.921875 1.9375l0 8.421875l-2.1875 0l0 -8.3125q0 -2.765625 -2.703125 -2.765625q-2.140625 0 -2.921875 1.8125l0 9.265625l-2.171875 0l0 -12.6875l2.0625 0zm24.253906 12.921875q-2.578125 0 -4.203125 -1.6875q-1.609375 -1.703125 -1.609375 -4.53125l0 -0.40625q0 -1.890625 0.71875 -3.359375q0.71875 -1.484375 2.015625 -2.328125q1.296875 -0.84375 2.8125 -0.84375q2.46875 0 3.828125 1.640625q1.375 1.625 1.375 4.65625l0 0.90625l-8.578125 0q0.046875 1.875 1.09375 3.03125q1.046875 1.15625 2.65625 1.15625q1.15625 0 1.953125 -0.46875q0.796875 -0.46875 1.390625 -1.25l1.328125 1.03125q-1.59375 2.453125 -4.78125 2.453125zm-0.265625 -11.375q-1.3125 0 -2.203125 0.96875q-0.890625 0.953125 -1.109375 2.671875l6.359375 0l0 -0.171875q-0.09375 -1.640625 -0.890625 -2.546875q-0.796875 -0.921875 -2.15625 -0.921875zm13.578125 4.21875q0 -2.65625 0.703125 -5.09375q0.71875 -2.4375 2.125 -4.421875q1.40625 -2.0 2.90625 -2.8125l0.453125 1.421875q-1.71875 1.3125 -2.8125 4.015625q-1.09375 2.6875 -1.203125 6.03125l0 1.0q0 4.515625 1.640625 7.84375q1.0 2.0 2.375 3.125l-0.453125 1.328125q-1.546875 -0.875 -2.96875 -2.90625q-2.765625 -4.0 -2.765625 -9.53125zm14.0859375 -1.578125l4.453125 -8.5625l2.546875 0l-5.875 10.703125l0 6.359375l-2.25 0l0 -6.359375l-5.890625 -10.703125l2.578125 0l4.4375 8.5625zm14.1015625 1.6875q0 2.609375 -0.6875 5.015625q-0.671875 2.390625 -2.09375 4.421875q-1.40625 2.03125 -2.953125 2.890625l-0.453125 -1.328125q1.796875 -1.390625 2.890625 -4.296875q1.09375 -2.921875 1.125 -6.46875l0 -0.375q0 -2.453125 -0.515625 -4.5625q-0.515625 -2.125 -1.4375 -3.796875q-0.921875 -1.6875 -2.0625 -2.625l0.453125 -1.3125q1.546875 0.84375 2.9375 2.859375q1.40625 2.0 2.09375 4.421875q0.703125 2.40625 0.703125 5.15625z" fill-rule="nonzero"/><path fill="#000000" fill-opacity="0.0" d="m265.9029 141.95013l310.80316 0" fill-rule="evenodd"/><path stroke="#000000" stroke-width="3.0" stroke-linejoin="round" stroke-linecap="butt" d="m265.9029 141.95013l292.80316 0" fill-rule="evenodd"/><path fill="#000000" stroke="#000000" stroke-width="3.0" stroke-linecap="butt" d="m558.70605 146.90533l13.614258 -4.9552l-13.614258 -4.9552z" fill-rule="evenodd"/><path fill="#000000" fill-opacity="0.0" d="m400.02887 141.95013l42.551178 0l0 48.472443l-42.551178 0z" fill-rule="evenodd"/><path fill="#000000" d="m424.6951 169.45888l2.125 0.21875q-0.796875 2.328125 -2.28125 3.46875q-1.46875 1.125 -3.34375 1.125q-2.015625 0 -3.28125 -1.3125q-1.265625 -1.3125 -1.265625 -3.671875q0 -2.03125 0.8125 -4.0q0.8125 -1.96875 2.3125 -3.0q1.515625 -1.03125 3.4375 -1.03125q2.015625 0 3.1875 1.140625q1.171875 1.125 1.171875 2.984375l-2.09375 0.140625q-0.015625 -1.171875 -0.6875 -1.84375q-0.671875 -0.671875 -1.765625 -0.671875q-1.28125 0 -2.21875 0.8125q-0.9375 0.8125 -1.46875 2.453125q-0.53125 1.640625 -0.53125 3.171875q0 1.59375 0.703125 2.390625q0.703125 0.796875 1.734375 0.796875q1.03125 0 1.96875 -0.78125q0.9375 -0.796875 1.484375 -2.390625z" fill-rule="nonzero"/></g></svg>