<svg version="1.1" viewBox="0.0 0.0 1314.971128608924 699.7480314960629" fill="none" stroke="none" stroke-linecap="square" stroke-miterlimit="10" xmlns:xlink="http://www.w3.org/1999/xlink" xmlns="http://www.w3.org/2000/svg"><clipPath id="p.0"><path d="m0 0l1314.9711 0l0 699.74805l-1314.9711 0l0 -699.74805z" clip-rule="nonzero"/></clipPath><g clip-path="url(#p.0)"><path fill="#000000" fill-opacity="0.0" d="m0 0l1314.9711 0l0 699.74805l-1314.9711 0z" fill-rule="evenodd"/><path fill="#cfe2f3" d="m254.3412 145.45932l0 0c0 -43.269554 38.136887 -78.34646 85.18111 -78.34646l0 0c47.04422 0 85.18109 35.076904 85.18109 78.34646l0 0c0 43.269547 -38.13687 78.34645 -85.18109 78.34645l0 0c-47.04422 0 -85.18111 -35.076904 -85.18111 -78.34645z" fill-rule="evenodd"/><path fill="#000000" d="m306.69714 137.01244l8.96875 0l0 2.046875l-11.484375 0l0 -18.953117l2.515625 0l0 16.906242zm20.140228 2.046875q-0.203125 -0.421875 -0.34375 -1.484375q-1.671875 1.75 -4.0 1.75q-2.078125 0 -3.421875 -1.171875q-1.328125 -1.1875 -1.328125 -3.0q0 -2.203125 1.671875 -3.40625q1.671875 -1.21875 4.703125 -1.21875l2.34375 0l0 -1.109375q0 -1.265625 -0.765625 -2.0156174q-0.75 -0.75 -2.21875 -0.75q-1.28125 0 -2.15625 0.65625q-0.875 0.640625 -0.875 1.5781174l-2.421875 0q0 -1.0624924 0.75 -2.0468674q0.75 -0.984375 2.03125 -1.546875q1.28125 -0.578125 2.8125 -0.578125q2.4375 0 3.8125 1.21875q1.390625 1.21875 1.4375 3.3437424l0 6.484375q0 1.9375 0.5 3.09375l0 0.203125l-2.53125 0zm-4.0 -1.828125q1.140625 0 2.15625 -0.578125q1.015625 -0.59375 1.46875 -1.53125l0 -2.890625l-1.890625 0q-4.421875 0 -4.421875 2.578125q0 1.140625 0.75 1.78125q0.765625 0.640625 1.9375 0.640625zm13.077667 -15.671867l0 3.421875l2.625 0l0 1.859375l-2.625 0l0 8.734367q0 0.84375 0.34375 1.265625q0.359375 0.421875 1.203125 0.421875q0.40625 0 1.140625 -0.15625l0 1.953125q-0.953125 0.265625 -1.84375 0.265625q-1.609375 0 -2.4375 -0.96875q-0.8125 -0.984375 -0.8125 -2.78125l0 -8.734367l-2.578125 0l0 -1.859375l2.578125 0l0 -3.421875l2.40625 0zm11.285645 17.765617q-2.875 0 -4.671875 -1.875q-1.796875 -1.890625 -1.796875 -5.046875l0 -0.4375q0 -2.09375 0.796875 -3.734375q0.8125 -1.6562424 2.25 -2.5781174q1.4375 -0.9375 3.109375 -0.9375q2.75 0 4.265625 1.8125q1.53125 1.8124924 1.53125 5.1718674l0 1.0l-9.53125 0q0.046875 2.09375 1.203125 3.375q1.171875 1.28125 2.96875 1.28125q1.28125 0 2.15625 -0.515625q0.890625 -0.53125 1.546875 -1.390625l1.484375 1.15625q-1.78125 2.71875 -5.3125 2.71875zm-0.3125 -12.624992q-1.453125 0 -2.4375 1.0625q-0.984375 1.0468674 -1.21875 2.9687424l7.046875 0l0 -0.1875q-0.109375 -1.828125 -1.0 -2.8281174q-0.875 -1.015625 -2.390625 -1.015625zm10.856476 -1.71875l0.078125 1.765625q1.625 -2.03125 4.21875 -2.03125q4.46875 0 4.515625 5.0312424l0 9.3125l-2.421875 0l0 -9.3125q0 -1.53125 -0.6875 -2.2499924q-0.6875 -0.734375 -2.125 -0.734375q-1.171875 0 -2.0625 0.625q-0.890625 0.6249924 -1.375 1.6406174l0 10.03125l-2.40625 0l0 -14.078117l2.265625 0zm15.707794 -3.421875l0 3.421875l2.625 0l0 1.859375l-2.625 0l0 8.734367q0 0.84375 0.34375 1.265625q0.359375 0.421875 1.203125 0.421875q0.40625 0 1.140625 -0.15625l0 1.953125q-0.953125 0.265625 -1.84375 0.265625q-1.609375 0 -2.4375 -0.96875q-0.8125 -0.984375 -0.8125 -2.78125l0 -8.734367l-2.578125 0l0 -1.859375l2.578125 0l0 -3.421875l2.40625 0z" fill-rule="nonzero"/><path fill="#000000" d="m296.55075 171.05933l0 -12.21875l-2.21875 0l0 -1.859375l2.21875 0l0 -1.453125q0 -2.265625 1.203125 -3.5q1.21875 -1.234375 3.4375 -1.234375q0.828125 0 1.65625 0.21875l-0.140625 1.953125q-0.609375 -0.109375 -1.296875 -0.109375q-1.171875 0 -1.8125 0.6875q-0.625 0.671875 -0.625 1.953125l0 1.484375l3.0 0l0 1.859375l-3.0 0l0 12.21875l-2.421875 0zm16.769806 0q-0.203125 -0.421875 -0.34375 -1.484375q-1.671875 1.75 -4.0 1.75q-2.078125 0 -3.421875 -1.171875q-1.328125 -1.1875 -1.328125 -3.0q0 -2.203125 1.671875 -3.40625q1.671875 -1.21875 4.703125 -1.21875l2.34375 0l0 -1.109375q0 -1.265625 -0.765625 -2.015625q-0.75 -0.75 -2.21875 -0.75q-1.28125 0 -2.15625 0.65625q-0.875 0.640625 -0.875 1.578125l-2.421875 0q0 -1.0625 0.75 -2.046875q0.75 -0.984375 2.03125 -1.546875q1.28125 -0.578125 2.8125 -0.578125q2.4375 0 3.8125 1.21875q1.390625 1.21875 1.4375 3.34375l0 6.484375q0 1.9375 0.5 3.09375l0 0.203125l-2.53125 0zm-4.0 -1.828125q1.140625 0 2.15625 -0.578125q1.015625 -0.59375 1.46875 -1.53125l0 -2.890625l-1.890625 0q-4.421875 0 -4.421875 2.578125q0 1.140625 0.75 1.78125q0.765625 0.640625 1.9375 0.640625zm15.452667 0.125q1.296875 0 2.25 -0.78125q0.96875 -0.78125 1.078125 -1.953125l2.265625 0q-0.0625 1.203125 -0.828125 2.296875q-0.765625 1.09375 -2.046875 1.75q-1.28125 0.65625 -2.71875 0.65625q-2.875 0 -4.578125 -1.921875q-1.6875 -1.921875 -1.6875 -5.25l0 -0.40625q0 -2.0625 0.75 -3.65625q0.75 -1.609375 2.15625 -2.484375q1.421875 -0.890625 3.34375 -0.890625q2.375 0 3.9375 1.421875q1.578125 1.421875 1.671875 3.6875l-2.265625 0q-0.109375 -1.375 -1.046875 -2.25q-0.921875 -0.875 -2.296875 -0.875q-1.828125 0 -2.84375 1.328125q-1.0 1.3125 -1.0 3.8125l0 0.453125q0 2.4375 1.0 3.75q1.0 1.3125 2.859375 1.3125zm11.577881 -15.796875l0 3.421875l2.625 0l0 1.859375l-2.625 0l0 8.734375q0 0.84375 0.34375 1.265625q0.359375 0.421875 1.203125 0.421875q0.40625 0 1.140625 -0.15625l0 1.953125q-0.953125 0.265625 -1.84375 0.265625q-1.609375 0 -2.4375 -0.96875q-0.8125 -0.984375 -0.8125 -2.78125l0 -8.734375l-2.578125 0l0 -1.859375l2.578125 0l0 -3.421875l2.40625 0zm4.540863 10.328125q0 -2.0625 0.8125 -3.71875q0.8125 -1.65625 2.265625 -2.546875q1.453125 -0.90625 3.3125 -0.90625q2.875 0 4.640625 2.0q1.78125 1.984375 1.78125 5.296875l0 0.15625q0 2.0625 -0.78125 3.703125q-0.78125 1.625 -2.25 2.546875q-1.46875 0.90625 -3.375 0.90625q-2.859375 0 -4.640625 -1.984375q-1.765625 -2.0 -1.765625 -5.28125l0 -0.171875zm2.421875 0.28125q0 2.34375 1.078125 3.765625q1.09375 1.421875 2.90625 1.421875q1.84375 0 2.921875 -1.4375q1.078125 -1.4375 1.078125 -4.03125q0 -2.3125 -1.109375 -3.75q-1.09375 -1.4375 -2.90625 -1.4375q-1.78125 0 -2.875 1.421875q-1.09375 1.40625 -1.09375 4.046875zm20.218018 -5.03125q-0.546875 -0.09375 -1.1875 -0.09375q-2.359375 0 -3.203125 2.015625l0 10.0l-2.40625 0l0 -14.078125l2.34375 0l0.03125 1.625q1.1875 -1.890625 3.359375 -1.890625q0.703125 0 1.0625 0.1875l0 2.234375zm16.478271 11.921875l-2.421875 0l0 -16.046875l-4.84375 1.78125l0 -2.1875l6.890625 -2.59375l0.375 0l0 19.046875z" fill-rule="nonzero"/><path fill="#cfe2f3" d="m281.69553 435.1916l115.653564 0l0 119.37012l-115.653564 0z" fill-rule="evenodd"/><path fill="#000000" d="m334.55338 492.78912l4.546875 -7.265625l2.9375 0l-5.984375 9.40625l6.140625 9.546875l-2.96875 0l-4.671875 -7.390625l-4.671875 7.390625l-2.96875 0l6.15625 -9.546875l-6.0 -9.40625l2.921875 0l4.5625 7.265625z" fill-rule="nonzero"/><path fill="#000000" d="m352.21872 514.4766l-8.28125 0l0 -1.15625l4.375 -4.859375q0.96875 -1.09375 1.328125 -1.78125q0.375 -0.703125 0.375 -1.4375q0 -0.984375 -0.59375 -1.609375q-0.59375 -0.640625 -1.59375 -0.640625q-1.203125 0 -1.875 0.6875q-0.65625 0.671875 -0.65625 1.890625l-1.59375 0q0 -1.75 1.109375 -2.8125q1.125 -1.078125 3.015625 -1.078125q1.765625 0 2.78125 0.921875q1.03125 0.921875 1.03125 2.453125q0 1.859375 -2.390625 4.4375l-3.375 3.671875l6.34375 0l0 1.3125z" fill-rule="nonzero"/><path fill="#cfe2f3" d="m48.992126 435.1916l115.65355 0l0 119.37012l-115.65355 0z" fill-rule="evenodd"/><path fill="#000000" d="m101.84995 492.78912l4.546875 -7.265625l2.9375 0l-5.984375 9.40625l6.140625 9.546875l-2.96875 0l-4.671875 -7.390625l-4.671875 7.390625l-2.96875 0l6.15625 -9.546875l-6.0 -9.40625l2.921875 0l4.5625 7.265625z" fill-rule="nonzero"/><path fill="#000000" d="m116.515305 514.4766l-1.625 0l0 -10.703125l-3.2343826 1.203125l0 -1.46875l4.6093826 -1.71875l0.25 0l0 12.6875z" fill-rule="nonzero"/><path fill="#cfe2f3" d="m514.3989 435.1916l115.653564 0l0 119.37012l-115.653564 0z" fill-rule="evenodd"/><path fill="#000000" d="m567.2568 492.78912l4.546875 -7.265625l2.9375 0l-5.984375 9.40625l6.140625 9.546875l-2.96875 0l-4.671875 -7.390625l-4.671875 7.390625l-2.96875 0l6.15625 -9.546875l-6.0 -9.40625l2.921875 0l4.5625 7.265625z" fill-rule="nonzero"/><path fill="#000000" d="m578.9846 507.38287l1.203125 0q1.125 -0.015625 1.78125 -0.59375q0.65625 -0.59375 0.65625 -1.578125q0 -2.21875 -2.21875 -2.21875q-1.03125 0 -1.65625 0.59375q-0.625 0.59375 -0.625 1.578125l-1.609375 0q0 -1.5 1.09375 -2.484375q1.109375 -1.0 2.796875 -1.0q1.78125 0 2.796875 0.953125q1.015625 0.9375 1.015625 2.609375q0 0.828125 -0.53125 1.609375q-0.53125 0.765625 -1.453125 1.140625q1.046875 0.328125 1.609375 1.09375q0.578125 0.765625 0.578125 1.875q0 1.6875 -1.125 2.6875q-1.109375 1.0 -2.890625 1.0q-1.765625 0 -2.890625 -0.953125q-1.109375 -0.96875 -1.109375 -2.546875l1.609375 0q0 1.0 0.65625 1.59375q0.65625 0.59375 1.75 0.59375q1.15625 0 1.765625 -0.59375q0.625 -0.609375 0.625 -1.75q0 -1.109375 -0.6875 -1.6875q-0.671875 -0.59375 -1.9375 -0.609375l-1.203125 0l0 -1.3125z" fill-rule="nonzero"/><path fill="#000000" fill-opacity="0.0" d="m339.5223 223.80577l-232.6929 211.40157" fill-rule="evenodd"/><path stroke="#000000" stroke-width="3.0" stroke-linejoin="round" stroke-linecap="butt" d="m339.5223 223.80577l-219.37009 199.29778" fill-rule="evenodd"/><path fill="#000000" stroke="#000000" stroke-width="3.0" stroke-linecap="butt" d="m116.82019 419.4359l-6.7446823 12.822327l13.408768 -5.4870605z" fill-rule="evenodd"/><path fill="#000000" fill-opacity="0.0" d="m339.5223 223.80577l0 211.40157" fill-rule="evenodd"/><path stroke="#000000" stroke-width="3.0" stroke-linejoin="round" stroke-linecap="butt" d="m339.5223 223.80577l0 193.40157" fill-rule="evenodd"/><path fill="#000000" stroke="#000000" stroke-width="3.0" stroke-linecap="butt" d="m334.5671 417.20734l4.9552 13.614319l4.9552 -13.614319z" fill-rule="evenodd"/><path fill="#000000" fill-opacity="0.0" d="m339.5223 223.80577l232.6929 211.40157" fill-rule="evenodd"/><path stroke="#000000" stroke-width="3.0" stroke-linejoin="round" stroke-linecap="butt" d="m339.5223 223.80577l219.37009 199.29778" fill-rule="evenodd"/><path fill="#000000" stroke="#000000" stroke-width="3.0" stroke-linecap="butt" d="m555.56036 426.77118l13.408752 5.4870605l-6.74469 -12.822327z" fill-rule="evenodd"/><path fill="#000000" fill-opacity="0.0" d="m279.29016 90.060005c0 -36.96701 30.118134 -73.941895 60.236237 -73.93402c30.118103 0.007873535 60.236206 36.99851 60.236206 73.99702" fill-rule="evenodd"/><path stroke="#000000" stroke-width="3.0" stroke-linejoin="round" stroke-linecap="butt" d="m281.54636 72.201965l0.04284668 -0.17394257c0.07086182 -0.281044 0.14328003 -0.5617218 0.2171936 -0.8420181c0.14788818 -0.5605774 0.30181885 -1.1195984 0.46176147 -1.6769333c0.6397095 -2.2293472 1.375 -4.4316254 2.1985474 -6.5978165c3.2941895 -8.664761 8.000153 -16.752033 13.647278 -23.683842c11.294312 -13.863615 26.353363 -23.105366 41.412415 -23.101429c15.059082 0.0039367676 30.118134 9.253563 41.412415 23.127018c5.647156 6.9367332 10.353088 15.029415 13.647278 23.700329c0.82351685 2.1677246 1.5588379 4.3715897 2.198578 6.6025696c0.15988159 0.5577469 0.31384277 1.1171875 0.46173096 1.6781769c0.07394409 0.2804947 0.14633179 0.5613861 0.21722412 0.8426361l0.04623413 0.18782043" fill-rule="evenodd"/><path fill="#000000" stroke="#000000" stroke-width="3.0" stroke-linecap="butt" d="m276.63022 71.58087l3.2096558 14.128021l6.622589 -12.885826z" fill-rule="evenodd"/><path fill="#000000" stroke="#000000" stroke-width="3.0" stroke-linecap="butt" d="m392.5936 72.8847l6.6201477 12.887077l3.2123413 -14.127411z" fill-rule="evenodd"/><path fill="#000000" fill-opacity="0.0" d="m147.30708 288.27036l67.086624 0l0 51.716522l-67.086624 0z" fill-rule="evenodd"/><path fill="#000000" d="m171.95192 312.5422l-3.875 10.328125l-2.46875 0l5.125 -13.5625l-2.046875 -5.515625l2.46875 0l7.125 19.078125l-2.46875 0l-3.859375 -10.328125z" fill-rule="nonzero"/><path fill="#000000" d="m185.2488 332.87033l-1.5625 0l0 -9.953125q-0.5625 0.546875 -1.484375 1.078125q-0.921875 0.53125 -1.640625 0.8125l0 -1.515625q1.3125 -0.609375 2.28125 -1.484375q0.984375 -0.875 1.390625 -1.703125l1.015625 0l0 12.765625zm7.9010773 0l-1.5625 0l0 -9.953125q-0.5625 0.546875 -1.484375 1.078125q-0.921875 0.53125 -1.640625 0.8125l0 -1.515625q1.3125 -0.609375 2.28125 -1.484375q0.984375 -0.875 1.390625 -1.703125l1.015625 0l0 12.765625z" fill-rule="nonzero"/><path fill="#000000" fill-opacity="0.0" d="m281.69553 288.27036l67.08664 0l0 51.716522l-67.08664 0z" fill-rule="evenodd"/><path fill="#000000" d="m305.35077 312.5422l-3.875 10.328125l-2.46875 0l5.125 -13.5625l-2.046875 -5.515625l2.46875 0l7.125 19.078125l-2.46875 0l-3.859375 -10.328125z" fill-rule="nonzero"/><path fill="#000000" d="m318.64764 332.87033l-1.5625 0l0 -9.953125q-0.5625 0.546875 -1.484375 1.078125q-0.921875 0.53125 -1.640625 0.8125l0 -1.515625q1.3125 -0.609375 2.28125 -1.484375q0.984375 -0.875 1.390625 -1.703125l1.015625 0l0 12.765625zm12.192749 -1.5l0 1.5l-8.40625 0q-0.015625 -0.5625 0.1875 -1.078125q0.328125 -0.859375 1.03125 -1.6875q0.703125 -0.84375 2.046875 -1.9375q2.0625 -1.703125 2.796875 -2.6875q0.734375 -1.0 0.734375 -1.875q0 -0.9375 -0.671875 -1.5625q-0.65625 -0.640625 -1.734375 -0.640625q-1.125 0 -1.796875 0.671875q-0.671875 0.671875 -0.6875 1.875l-1.609375 -0.171875q0.171875 -1.796875 1.25 -2.734375q1.078125 -0.9375 2.890625 -0.9375q1.828125 0 2.890625 1.015625q1.0625 1.015625 1.0625 2.515625q0 0.765625 -0.3125 1.5q-0.3125 0.734375 -1.03125 1.546875q-0.71875 0.8125 -2.40625 2.234375q-1.40625 1.1875 -1.8125 1.609375q-0.390625 0.421875 -0.65625 0.84375l6.234375 0z" fill-rule="nonzero"/><path fill="#000000" fill-opacity="0.0" d="m447.31235 288.27036l67.08658 0l0 51.716522l-67.08658 0z" fill-rule="evenodd"/><path fill="#000000" d="m470.9676 312.5422l-3.875 10.328125l-2.46875 0l5.125 -13.5625l-2.046875 -5.515625l2.46875 0l7.125 19.078125l-2.46875 0l-3.859375 -10.328125z" fill-rule="nonzero"/><path fill="#000000" d="m484.26447 332.87033l-1.5625 0l0 -9.953125q-0.5625 0.546875 -1.484375 1.078125q-0.921875 0.53125 -1.640625 0.8125l0 -1.515625q1.3125 -0.609375 2.28125 -1.484375q0.984375 -0.875 1.390625 -1.703125l1.015625 0l0 12.765625zm4.005249 -3.359375l1.5625 -0.203125q0.265625 1.328125 0.90625 1.921875q0.65625 0.578125 1.578125 0.578125q1.109375 0 1.859375 -0.765625q0.765625 -0.765625 0.765625 -1.890625q0 -1.078125 -0.703125 -1.765625q-0.703125 -0.703125 -1.796875 -0.703125q-0.4375 0 -1.09375 0.171875l0.171875 -1.375q0.15625 0.015625 0.25 0.015625q1.0 0 1.796875 -0.515625q0.796875 -0.53125 0.796875 -1.609375q0 -0.859375 -0.578125 -1.421875q-0.578125 -0.5625 -1.5 -0.5625q-0.921875 0 -1.53125 0.578125q-0.59375 0.5625 -0.765625 1.71875l-1.5625 -0.28125q0.28125 -1.578125 1.296875 -2.4375q1.015625 -0.859375 2.53125 -0.859375q1.03125 0 1.90625 0.453125q0.875 0.4375 1.34375 1.21875q0.46875 0.765625 0.46875 1.625q0 0.828125 -0.453125 1.515625q-0.4375 0.671875 -1.296875 1.0625q1.125 0.265625 1.75 1.09375q0.625 0.8125 0.625 2.046875q0 1.65625 -1.21875 2.8125q-1.21875 1.15625 -3.078125 1.15625q-1.671875 0 -2.78125 -0.984375q-1.09375 -1.0 -1.25 -2.59375z" fill-rule="nonzero"/><path fill="#cfe2f3" d="m73.02362 649.8268l0 0c0 -18.664612 15.130661 -33.795288 33.79528 -33.795288l0 0c8.963058 0 17.559021 3.5605469 23.896858 9.8984375c6.337845 6.3378296 9.898407 14.933777 9.898407 23.89685l0 0c0 18.664612 -15.130653 33.795288 -33.795265 33.795288l0 0c-18.66462 0 -33.79528 -15.130676 -33.79528 -33.795288z" fill-rule="evenodd"/><path fill="#000000" d="m102.4419 659.6924q-2.875 0 -4.671875 -1.875q-1.796875 -1.890625 -1.796875 -5.046875l0 -0.4375q0 -2.09375 0.796875 -3.734375q0.8125 -1.65625 2.25 -2.578125q1.4375 -0.9375 3.109375 -0.9375q2.75 0 4.265625 1.8125q1.53125 1.8125 1.53125 5.171875l0 1.0l-9.53125 0q0.046875 2.09375 1.203125 3.375q1.171875 1.28125 2.96875 1.28125q1.28125 0 2.15625 -0.515625q0.890625 -0.53125 1.546875 -1.390625l1.484375 1.15625q-1.78125 2.71875 -5.3125 2.71875zm-0.3125 -12.625q-1.453125 0 -2.4375 1.0625q-0.984375 1.046875 -1.21875 2.96875l7.046875 0l0 -0.1875q-0.109375 -1.828125 -1.0 -2.828125q-0.875 -1.015625 -2.390625 -1.015625z" fill-rule="nonzero"/><path fill="#000000" d="m115.22024 669.42676l-1.625 0l0 -10.703125l-3.234375 1.203125l0 -1.46875l4.609375 -1.71875l0.25 0l0 12.6875z" fill-rule="nonzero"/><path fill="#cfe2f3" d="m305.28085 649.8268l0 0c0 -18.664612 15.130646 -33.795288 33.795258 -33.795288l0 0c8.963074 0 17.559021 3.5605469 23.896881 9.8984375c6.3378296 6.3378296 9.898407 14.933777 9.898407 23.89685l0 0c0 18.664612 -15.130676 33.795288 -33.795288 33.795288l0 0c-18.664612 0 -33.795258 -15.130676 -33.795258 -33.795288z" fill-rule="evenodd"/><path fill="#000000" d="m334.69913 659.6924q-2.875 0 -4.671875 -1.875q-1.796875 -1.890625 -1.796875 -5.046875l0 -0.4375q0 -2.09375 0.796875 -3.734375q0.8125 -1.65625 2.25 -2.578125q1.4375 -0.9375 3.109375 -0.9375q2.75 0 4.265625 1.8125q1.53125 1.8125 1.53125 5.171875l0 1.0l-9.53125 0q0.046875 2.09375 1.203125 3.375q1.171875 1.28125 2.96875 1.28125q1.28125 0 2.15625 -0.515625q0.890625 -0.53125 1.546875 -1.390625l1.484375 1.15625q-1.78125 2.71875 -5.3125 2.71875zm-0.3125 -12.625q-1.453125 0 -2.4375 1.0625q-0.984375 1.046875 -1.21875 2.96875l7.046875 0l0 -0.1875q-0.109375 -1.828125 -1.0 -2.828125q-0.875 -1.015625 -2.390625 -1.015625z" fill-rule="nonzero"/><path fill="#000000" d="m350.47745 669.42676l-8.28125 0l0 -1.15625l4.375 -4.859375q0.96875 -1.09375 1.328125 -1.78125q0.375 -0.703125 0.375 -1.4375q0 -0.984375 -0.59375 -1.609375q-0.59375 -0.640625 -1.59375 -0.640625q-1.203125 0 -1.875 0.6875q-0.65625 0.671875 -0.65625 1.890625l-1.59375 0q0 -1.75 1.109375 -2.8125q1.125 -1.078125 3.015625 -1.078125q1.765625 0 2.78125 0.921875q1.03125 0.921875 1.03125 2.453125q0 1.859375 -2.390625 4.4375l-3.375 3.671875l6.34375 0l0 1.3125z" fill-rule="nonzero"/><path fill="#cfe2f3" d="m538.4304 649.8268l0 0c0 -18.664612 15.130676 -33.795288 33.795288 -33.795288l0 0c8.963074 0 17.559021 3.5605469 23.896912 9.8984375c6.3378296 6.3378296 9.898376 14.933777 9.898376 23.89685l0 0c0 18.664612 -15.130676 33.795288 -33.795288 33.795288l0 0c-18.664612 0 -33.795288 -15.130676 -33.795288 -33.795288z" fill-rule="evenodd"/><path fill="#000000" d="m567.8487 659.6924q-2.875 0 -4.671875 -1.875q-1.796875 -1.890625 -1.796875 -5.046875l0 -0.4375q0 -2.09375 0.796875 -3.734375q0.8125 -1.65625 2.25 -2.578125q1.4375 -0.9375 3.109375 -0.9375q2.75 0 4.265625 1.8125q1.53125 1.8125 1.53125 5.171875l0 1.0l-9.53125 0q0.046875 2.09375 1.203125 3.375q1.171875 1.28125 2.96875 1.28125q1.28125 0 2.15625 -0.515625q0.890625 -0.53125 1.546875 -1.390625l1.484375 1.15625q-1.78125 2.71875 -5.3125 2.71875zm-0.3125 -12.625q-1.453125 0 -2.4375 1.0625q-0.984375 1.046875 -1.21875 2.96875l7.046875 0l0 -0.1875q-0.109375 -1.828125 -1.0 -2.828125q-0.875 -1.015625 -2.390625 -1.015625z" fill-rule="nonzero"/><path fill="#000000" d="m577.6896 662.333l1.203125 0q1.125 -0.015625 1.78125 -0.59375q0.65625 -0.59375 0.65625 -1.578125q0 -2.21875 -2.21875 -2.21875q-1.03125 0 -1.65625 0.59375q-0.625 0.59375 -0.625 1.578125l-1.609375 0q0 -1.5 1.09375 -2.484375q1.109375 -1.0 2.796875 -1.0q1.78125 0 2.796875 0.953125q1.015625 0.9375 1.015625 2.609375q0 0.828125 -0.53125 1.609375q-0.53125 0.765625 -1.453125 1.140625q1.046875 0.328125 1.609375 1.09375q0.578125 0.765625 0.578125 1.875q0 1.6875 -1.125 2.6875q-1.109375 1.0 -2.890625 1.0q-1.765625 0 -2.890625 -0.953125q-1.109375 -0.96875 -1.109375 -2.546875l1.609375 0q0 1.0 0.65625 1.59375q0.65625 0.59375 1.75 0.59375q1.15625 0 1.765625 -0.59375q0.625 -0.609375 0.625 -1.75q0 -1.109375 -0.6875 -1.6875q-0.671875 -0.59375 -1.9375 -0.609375l-1.203125 0l0 -1.3125z" fill-rule="nonzero"/><path fill="#000000" fill-opacity="0.0" d="m106.8189 616.0315l0 -61.480286" fill-rule="evenodd"/><path stroke="#000000" stroke-width="2.0" stroke-linejoin="round" stroke-linecap="butt" d="m106.8189 616.0315l0 -49.480286" fill-rule="evenodd"/><path fill="#000000" stroke="#000000" stroke-width="2.0" stroke-linecap="butt" d="m110.12236 566.5512l-3.3034592 -9.076233l-3.3034668 9.076233z" fill-rule="evenodd"/><path fill="#000000" fill-opacity="0.0" d="m339.0761 616.0315l0.4409485 -61.480286" fill-rule="evenodd"/><path stroke="#000000" stroke-width="2.0" stroke-linejoin="round" stroke-linecap="butt" d="m339.0761 616.0315l0.35488892 -49.48065" fill-rule="evenodd"/><path fill="#000000" stroke="#000000" stroke-width="2.0" stroke-linecap="butt" d="m342.73438 566.5746l-3.2382812 -9.09967l-3.3684692 9.052246z" fill-rule="evenodd"/><path fill="#000000" fill-opacity="0.0" d="m572.2257 616.0315l0 -61.480286" fill-rule="evenodd"/><path stroke="#000000" stroke-width="2.0" stroke-linejoin="round" stroke-linecap="butt" d="m572.2257 616.0315l0 -49.480286" fill-rule="evenodd"/><path fill="#000000" stroke="#000000" stroke-width="2.0" stroke-linecap="butt" d="m575.5292 566.5512l-3.3034668 -9.076233l-3.3034668 9.076233z" fill-rule="evenodd"/><path fill="#000000" fill-opacity="0.0" d="m322.4147 16.125984l33.322815 0l0 42.015747l-33.322815 0z" fill-rule="evenodd"/><path fill="#000000" d="m338.05533 43.045982l-1.6875 0l0 -11.234375l-3.40625 1.25l0 -1.53125l4.828125 -1.8125l0.265625 0l0 13.328125z" fill-rule="nonzero"/><path fill="#cfe2f3" d="m891.53284 145.45932l0 0c0 -43.269554 38.13684 -78.34646 85.18109 -78.34646l0 0c47.04419 0 85.18109 35.076904 85.18109 78.34646l0 0c0 43.269547 -38.1369 78.34645 -85.18109 78.34645l0 0c-47.04425 0 -85.18109 -35.076904 -85.18109 -78.34645z" fill-rule="evenodd"/><path fill="#000000" d="m943.88873 137.01244l8.96875 0l0 2.046875l-11.484375 0l0 -18.953117l2.515625 0l0 16.906242zm20.140259 2.046875q-0.203125 -0.421875 -0.34375 -1.484375q-1.671875 1.75 -4.0 1.75q-2.078125 0 -3.421875 -1.171875q-1.328125 -1.1875 -1.328125 -3.0q0 -2.203125 1.671875 -3.40625q1.671875 -1.21875 4.703125 -1.21875l2.34375 0l0 -1.109375q0 -1.265625 -0.765625 -2.0156174q-0.75 -0.75 -2.21875 -0.75q-1.28125 0 -2.15625 0.65625q-0.875 0.640625 -0.875 1.5781174l-2.421875 0q0 -1.0624924 0.75 -2.0468674q0.75 -0.984375 2.03125 -1.546875q1.28125 -0.578125 2.8125 -0.578125q2.4375 0 3.8125 1.21875q1.390625 1.21875 1.4375 3.3437424l0 6.484375q0 1.9375 0.5 3.09375l0 0.203125l-2.53125 0zm-4.0 -1.828125q1.140625 0 2.15625 -0.578125q1.015625 -0.59375 1.46875 -1.53125l0 -2.890625l-1.890625 0q-4.421875 0 -4.421875 2.578125q0 1.140625 0.75 1.78125q0.765625 0.640625 1.9375 0.640625zm13.077637 -15.671867l0 3.421875l2.625 0l0 1.859375l-2.625 0l0 8.734367q0 0.84375 0.34375 1.265625q0.359375 0.421875 1.203125 0.421875q0.40625 0 1.140625 -0.15625l0 1.953125q-0.953125 0.265625 -1.84375 0.265625q-1.609375 0 -2.4375 -0.96875q-0.8125 -0.984375 -0.8125 -2.78125l0 -8.734367l-2.578125 0l0 -1.859375l2.578125 0l0 -3.421875l2.40625 0zm11.285645 17.765617q-2.875 0 -4.671875 -1.875q-1.796875 -1.890625 -1.796875 -5.046875l0 -0.4375q0 -2.09375 0.796875 -3.734375q0.8125 -1.6562424 2.25 -2.5781174q1.4375 -0.9375 3.109375 -0.9375q2.75 0 4.265625 1.8125q1.53125 1.8124924 1.53125 5.1718674l0 1.0l-9.53125 0q0.046875 2.09375 1.203125 3.375q1.171875 1.28125 2.96875 1.28125q1.28125 0 2.15625 -0.515625q0.890625 -0.53125 1.546875 -1.390625l1.484375 1.15625q-1.78125 2.71875 -5.3125 2.71875zm-0.3125 -12.624992q-1.453125 0 -2.4375 1.0625q-0.984375 1.0468674 -1.21875 2.9687424l7.046875 0l0 -0.1875q-0.109375 -1.828125 -1.0 -2.8281174q-0.875 -1.015625 -2.390625 -1.015625zm10.856506 -1.71875l0.078125 1.765625q1.625 -2.03125 4.21875 -2.03125q4.46875 0 4.515625 5.0312424l0 9.3125l-2.421875 0l0 -9.3125q0 -1.53125 -0.6875 -2.2499924q-0.6875 -0.734375 -2.125 -0.734375q-1.171875 0 -2.0625 0.625q-0.890625 0.6249924 -1.375 1.6406174l0 10.03125l-2.40625 0l0 -14.078117l2.265625 0zm15.707764 -3.421875l0 3.421875l2.625 0l0 1.859375l-2.625 0l0 8.734367q0 0.84375 0.34375 1.265625q0.359375 0.421875 1.203125 0.421875q0.40625 0 1.140625 -0.15625l0 1.953125q-0.953125 0.265625 -1.84375 0.265625q-1.609375 0 -2.4375 -0.96875q-0.8125 -0.984375 -0.8125 -2.78125l0 -8.734367l-2.578125 0l0 -1.859375l2.578125 0l0 -3.421875l2.40625 0z" fill-rule="nonzero"/><path fill="#000000" d="m933.7424 171.05933l0 -12.21875l-2.21875 0l0 -1.859375l2.21875 0l0 -1.453125q0 -2.265625 1.203125 -3.5q1.21875 -1.234375 3.4375 -1.234375q0.828125 0 1.65625 0.21875l-0.140625 1.953125q-0.609375 -0.109375 -1.296875 -0.109375q-1.171875 0 -1.8125 0.6875q-0.625 0.671875 -0.625 1.953125l0 1.484375l3.0 0l0 1.859375l-3.0 0l0 12.21875l-2.421875 0zm16.769775 0q-0.203125 -0.421875 -0.34375 -1.484375q-1.671875 1.75 -4.0 1.75q-2.078125 0 -3.421875 -1.171875q-1.328125 -1.1875 -1.328125 -3.0q0 -2.203125 1.671875 -3.40625q1.671875 -1.21875 4.703125 -1.21875l2.34375 0l0 -1.109375q0 -1.265625 -0.765625 -2.015625q-0.75 -0.75 -2.21875 -0.75q-1.28125 0 -2.15625 0.65625q-0.875 0.640625 -0.875 1.578125l-2.421875 0q0 -1.0625 0.75 -2.046875q0.75 -0.984375 2.03125 -1.546875q1.28125 -0.578125 2.8125 -0.578125q2.4375 0 3.8125 1.21875q1.390625 1.21875 1.4375 3.34375l0 6.484375q0 1.9375 0.5 3.09375l0 0.203125l-2.53125 0zm-4.0 -1.828125q1.140625 0 2.15625 -0.578125q1.015625 -0.59375 1.46875 -1.53125l0 -2.890625l-1.890625 0q-4.421875 0 -4.421875 2.578125q0 1.140625 0.75 1.78125q0.765625 0.640625 1.9375 0.640625zm15.452698 0.125q1.296875 0 2.25 -0.78125q0.96875 -0.78125 1.078125 -1.953125l2.265625 0q-0.0625 1.203125 -0.828125 2.296875q-0.765625 1.09375 -2.046875 1.75q-1.28125 0.65625 -2.71875 0.65625q-2.875 0 -4.578125 -1.921875q-1.6875 -1.921875 -1.6875 -5.25l0 -0.40625q0 -2.0625 0.75 -3.65625q0.75 -1.609375 2.15625 -2.484375q1.421875 -0.890625 3.34375 -0.890625q2.375 0 3.9375 1.421875q1.578125 1.421875 1.671875 3.6875l-2.265625 0q-0.109375 -1.375 -1.046875 -2.25q-0.921875 -0.875 -2.296875 -0.875q-1.828125 0 -2.84375 1.328125q-1.0 1.3125 -1.0 3.8125l0 0.453125q0 2.4375 1.0 3.75q1.0 1.3125 2.859375 1.3125zm11.577881 -15.796875l0 3.421875l2.625 0l0 1.859375l-2.625 0l0 8.734375q0 0.84375 0.34375 1.265625q0.359375 0.421875 1.203125 0.421875q0.40625 0 1.140625 -0.15625l0 1.953125q-0.953125 0.265625 -1.84375 0.265625q-1.609375 0 -2.4375 -0.96875q-0.8125 -0.984375 -0.8125 -2.78125l0 -8.734375l-2.578125 0l0 -1.859375l2.578125 0l0 -3.421875l2.40625 0zm4.5408325 10.328125q0 -2.0625 0.8125 -3.71875q0.8125 -1.65625 2.265625 -2.546875q1.453125 -0.90625 3.3125 -0.90625q2.875 0 4.640625 2.0q1.78125 1.984375 1.78125 5.296875l0 0.15625q0 2.0625 -0.78125 3.703125q-0.78125 1.625 -2.25 2.546875q-1.46875 0.90625 -3.375 0.90625q-2.859375 0 -4.640625 -1.984375q-1.765625 -2.0 -1.765625 -5.28125l0 -0.171875zm2.421875 0.28125q0 2.34375 1.078125 3.765625q1.09375 1.421875 2.90625 1.421875q1.84375 0 2.921875 -1.4375q1.078125 -1.4375 1.078125 -4.03125q0 -2.3125 -1.109375 -3.75q-1.09375 -1.4375 -2.90625 -1.4375q-1.78125 0 -2.875 1.421875q-1.09375 1.40625 -1.09375 4.046875zm20.218018 -5.03125q-0.546875 -0.09375 -1.1875 -0.09375q-2.359375 0 -3.203125 2.015625l0 10.0l-2.40625 0l0 -14.078125l2.34375 0l0.03125 1.625q1.1875 -1.890625 3.359375 -1.890625q0.703125 0 1.0625 0.1875l0 2.234375zm20.978271 11.921875l-12.40625 0l0 -1.734375l6.5625 -7.28125q1.453125 -1.65625 2.0 -2.6875q0.5625 -1.046875 0.5625 -2.140625q0 -1.484375 -0.90625 -2.4375q-0.890625 -0.953125 -2.390625 -0.953125q-1.796875 0 -2.796875 1.03125q-0.984375 1.015625 -0.984375 2.84375l-2.421875 0q0 -2.625 1.6875 -4.234375q1.6875 -1.625 4.515625 -1.625q2.640625 0 4.171875 1.390625q1.546875 1.390625 1.546875 3.6875q0 2.796875 -3.578125 6.671875l-5.0625 5.5l9.5 0l0 1.96875z" fill-rule="nonzero"/><path fill="#cfe2f3" d="m918.88715 435.1916l115.6535 0l0 119.37012l-115.6535 0z" fill-rule="evenodd"/><path fill="#000000" d="m971.745 492.78912l4.546875 -7.265625l2.9375 0l-5.984375 9.40625l6.140625 9.546875l-2.96875 0l-4.671875 -7.390625l-4.671875 7.390625l-2.96875 0l6.15625 -9.546875l-6.0 -9.40625l2.921875 0l4.5625 7.265625z" fill-rule="nonzero"/><path fill="#000000" d="m981.86346 508.1485l0.640625 -6.296875l6.484375 0l0 1.484375l-5.109375 0l-0.390625 3.4375q0.9375 -0.546875 2.109375 -0.546875q1.734375 0 2.734375 1.140625q1.015625 1.140625 1.015625 3.078125q0 1.953125 -1.046875 3.078125q-1.046875 1.125 -2.9375 1.125q-1.6875 0 -2.75 -0.921875q-1.046875 -0.9375 -1.203125 -2.578125l1.53125 0q0.140625 1.09375 0.765625 1.640625q0.625 0.546875 1.65625 0.546875q1.109375 0 1.75 -0.75q0.640625 -0.765625 0.640625 -2.109375q0 -1.28125 -0.6875 -2.046875q-0.6875 -0.765625 -1.84375 -0.765625q-1.046875 0 -1.640625 0.46875l-0.421875 0.34375l-1.296875 -0.328125z" fill-rule="nonzero"/><path fill="#cfe2f3" d="m686.1837 435.1916l115.653564 0l0 119.37012l-115.653564 0z" fill-rule="evenodd"/><path fill="#000000" d="m739.04156 492.78912l4.546875 -7.265625l2.9375 0l-5.984375 9.40625l6.140625 9.546875l-2.96875 0l-4.671875 -7.390625l-4.671875 7.390625l-2.96875 0l6.15625 -9.546875l-6.0 -9.40625l2.921875 0l4.5625 7.265625z" fill-rule="nonzero"/><path fill="#000000" d="m755.2069 510.24225l1.75 0l0 1.296875l-1.75 0l0 2.9375l-1.609375 0l0 -2.9375l-5.765625 0l0 -0.9375l5.65625 -8.75l1.71875 0l0 8.390625zm-5.546875 0l3.9375 0l0 -6.203125l-0.203125 0.34375l-3.734375 5.859375z" fill-rule="nonzero"/><path fill="#cfe2f3" d="m1151.5906 435.1916l115.653564 0l0 119.37012l-115.653564 0z" fill-rule="evenodd"/><path fill="#000000" d="m1204.4484 492.78912l4.546875 -7.265625l2.9375 0l-5.984375 9.40625l6.140625 9.546875l-2.96875 0l-4.671875 -7.390625l-4.671875 7.390625l-2.96875 0l6.15625 -9.546875l-6.0 -9.40625l2.921875 0l4.5625 7.265625z" fill-rule="nonzero"/><path fill="#000000" d="m1220.1294 501.836l0 1.359375l-0.296875 0q-1.875 0.03125 -2.984375 1.109375q-1.109375 1.078125 -1.28125 3.03125q1.0 -1.140625 2.734375 -1.140625q1.640625 0 2.625 1.171875q0.984375 1.15625 0.984375 2.984375q0 1.953125 -1.0625 3.125q-1.0625 1.171875 -2.84375 1.171875q-1.8125 0 -2.953125 -1.390625q-1.125 -1.390625 -1.125 -3.59375l0 -0.609375q0 -3.484375 1.484375 -5.328125q1.5 -1.84375 4.4375 -1.890625l0.28125 0zm-2.109375 5.6875q-0.8125 0 -1.515625 0.5q-0.6875 0.5 -0.953125 1.234375l0 0.59375q0 1.5625 0.6875 2.515625q0.703125 0.953125 1.765625 0.953125q1.078125 0 1.6875 -0.796875q0.625 -0.796875 0.625 -2.09375q0 -1.296875 -0.625 -2.09375q-0.625 -0.8125 -1.671875 -0.8125z" fill-rule="nonzero"/><path fill="#000000" fill-opacity="0.0" d="m976.7139 223.80577l-232.69293 211.40157" fill-rule="evenodd"/><path stroke="#000000" stroke-width="3.0" stroke-linejoin="round" stroke-linecap="butt" d="m976.7139 223.80577l-219.37012 199.29778" fill-rule="evenodd"/><path fill="#000000" stroke="#000000" stroke-width="3.0" stroke-linecap="butt" d="m754.0118 419.4359l-6.74469 12.822327l13.408813 -5.4870605z" fill-rule="evenodd"/><path fill="#000000" fill-opacity="0.0" d="m976.7139 223.80577l0 211.40157" fill-rule="evenodd"/><path stroke="#000000" stroke-width="3.0" stroke-linejoin="round" stroke-linecap="butt" d="m976.7139 223.80577l0 193.40157" fill-rule="evenodd"/><path fill="#000000" stroke="#000000" stroke-width="3.0" stroke-linecap="butt" d="m971.7587 417.20734l4.9552 13.614319l4.9552 -13.614319z" fill-rule="evenodd"/><path fill="#000000" fill-opacity="0.0" d="m976.7139 223.80577l232.69293 211.40157" fill-rule="evenodd"/><path stroke="#000000" stroke-width="3.0" stroke-linejoin="round" stroke-linecap="butt" d="m976.7139 223.80577l219.37006 199.29778" fill-rule="evenodd"/><path fill="#000000" stroke="#000000" stroke-width="3.0" stroke-linecap="butt" d="m1192.752 426.77118l13.408813 5.4870605l-6.744751 -12.822327z" fill-rule="evenodd"/><path fill="#000000" fill-opacity="0.0" d="m916.48175 90.060005c0 -37.26097 30.118164 -74.52982 60.236267 -74.52195c30.118103 0.007873535 60.236206 37.29247 60.236206 74.584946" fill-rule="evenodd"/><path stroke="#000000" stroke-width="3.0" stroke-linejoin="round" stroke-linecap="butt" d="m918.7043 72.19774l0.076538086 -0.31310272c0.07086182 -0.28328705 0.14331055 -0.5661926 0.21722412 -0.8487091c0.14788818 -0.56503296 0.30181885 -1.1285095 0.461792 -1.6902771c0.63964844 -2.2470703 1.375 -4.466858 2.1984863 -6.650276c3.2941895 -8.733658 8.000122 -16.885231 13.647278 -23.872158c11.294312 -13.973852 26.353333 -23.289095 41.412415 -23.285158c15.059021 0.0039377213 30.118103 9.327053 41.412415 23.310747c5.647156 6.991848 10.353088 15.148838 13.647278 23.888645c0.8234863 2.1849518 1.5588379 4.4063263 2.1984863 6.655037c0.15991211 0.56217957 0.31396484 1.1260605 0.461792 1.6915054c0.07385254 0.2827301 0.1463623 0.5658417 0.21716309 0.8493347l0.079956055 0.32699585" fill-rule="evenodd"/><path fill="#000000" stroke="#000000" stroke-width="3.0" stroke-linecap="butt" d="m913.787 71.585915l3.2363281 14.121948l6.5982666 -12.898293z" fill-rule="evenodd"/><path fill="#000000" stroke="#000000" stroke-width="3.0" stroke-linecap="butt" d="m1029.8176 72.87123l6.5959473 12.899521l3.2388916 -14.121338z" fill-rule="evenodd"/><path fill="#cfe2f3" d="m710.2152 649.8268l0 0c0 -18.664612 15.130676 -33.795288 33.795288 -33.795288l0 0c8.963074 0 17.559021 3.5605469 23.89685 9.8984375c6.3378906 6.3378296 9.8984375 14.933777 9.8984375 23.89685l0 0c0 18.664612 -15.130676 33.795288 -33.795288 33.795288l0 0c-18.664612 0 -33.795288 -15.130676 -33.795288 -33.795288z" fill-rule="evenodd"/><path fill="#000000" d="m739.6335 659.6924q-2.875 0 -4.671875 -1.875q-1.796875 -1.890625 -1.796875 -5.046875l0 -0.4375q0 -2.09375 0.796875 -3.734375q0.8125 -1.65625 2.25 -2.578125q1.4375 -0.9375 3.109375 -0.9375q2.75 0 4.265625 1.8125q1.53125 1.8125 1.53125 5.171875l0 1.0l-9.53125 0q0.046875 2.09375 1.203125 3.375q1.171875 1.28125 2.96875 1.28125q1.28125 0 2.15625 -0.515625q0.890625 -0.53125 1.546875 -1.390625l1.484375 1.15625q-1.78125 2.71875 -5.3125 2.71875zm-0.3125 -12.625q-1.453125 0 -2.4375 1.0625q-0.984375 1.046875 -1.21875 2.96875l7.046875 0l0 -0.1875q-0.109375 -1.828125 -1.0 -2.828125q-0.875 -1.015625 -2.390625 -1.015625z" fill-rule="nonzero"/><path fill="#000000" d="m753.91187 665.1924l1.75 0l0 1.296875l-1.75 0l0 2.9375l-1.609375 0l0 -2.9375l-5.765625 0l0 -0.9375l5.65625 -8.75l1.71875 0l0 8.390625zm-5.546875 0l3.9375 0l0 -6.203125l-0.203125 0.34375l-3.734375 5.859375z" fill-rule="nonzero"/><path fill="#cfe2f3" d="m942.4724 649.8268l0 0c0 -18.664612 15.130676 -33.795288 33.795288 -33.795288l0 0c8.963074 0 17.559021 3.5605469 23.896912 9.8984375c6.3378296 6.3378296 9.898376 14.933777 9.898376 23.89685l0 0c0 18.664612 -15.130676 33.795288 -33.795288 33.795288l0 0c-18.664612 0 -33.795288 -15.130676 -33.795288 -33.795288z" fill-rule="evenodd"/><path fill="#000000" d="m971.89075 659.6924q-2.875 0 -4.671875 -1.875q-1.796875 -1.890625 -1.796875 -5.046875l0 -0.4375q0 -2.09375 0.796875 -3.734375q0.8125 -1.65625 2.25 -2.578125q1.4375 -0.9375 3.109375 -0.9375q2.75 0 4.265625 1.8125q1.53125 1.8125 1.53125 5.171875l0 1.0l-9.53125 0q0.046875 2.09375 1.203125 3.375q1.171875 1.28125 2.96875 1.28125q1.28125 0 2.15625 -0.515625q0.890625 -0.53125 1.546875 -1.390625l1.484375 1.15625q-1.78125 2.71875 -5.3125 2.71875zm-0.3125 -12.625q-1.453125 0 -2.4375 1.0625q-0.984375 1.046875 -1.21875 2.96875l7.046875 0l0 -0.1875q-0.109375 -1.828125 -1.0 -2.828125q-0.875 -1.015625 -2.390625 -1.015625z" fill-rule="nonzero"/><path fill="#000000" d="m980.1222 663.09863l0.640625 -6.296875l6.484375 0l0 1.484375l-5.109375 0l-0.390625 3.4375q0.9375 -0.546875 2.109375 -0.546875q1.734375 0 2.734375 1.140625q1.015625 1.140625 1.015625 3.078125q0 1.953125 -1.046875 3.078125q-1.046875 1.125 -2.9375 1.125q-1.6875 0 -2.75 -0.921875q-1.046875 -0.9375 -1.203125 -2.578125l1.53125 0q0.140625 1.09375 0.765625 1.640625q0.625 0.546875 1.65625 0.546875q1.109375 0 1.75 -0.75q0.640625 -0.765625 0.640625 -2.109375q0 -1.28125 -0.6875 -2.046875q-0.6875 -0.765625 -1.84375 -0.765625q-1.046875 0 -1.640625 0.46875l-0.421875 0.34375l-1.296875 -0.328125z" fill-rule="nonzero"/><path fill="#cfe2f3" d="m1175.6221 649.8268l0 0c0 -18.664612 15.130615 -33.795288 33.795288 -33.795288l0 0c8.963013 0 17.55896 3.5605469 23.89685 9.8984375c6.3377686 6.3378296 9.8984375 14.933777 9.8984375 23.89685l0 0c0 18.664612 -15.130737 33.795288 -33.795288 33.795288l0 0c-18.664673 0 -33.795288 -15.130676 -33.795288 -33.795288z" fill-rule="evenodd"/><path fill="#000000" d="m1205.0403 659.6924q-2.875 0 -4.671875 -1.875q-1.796875 -1.890625 -1.796875 -5.046875l0 -0.4375q0 -2.09375 0.796875 -3.734375q0.8125 -1.65625 2.25 -2.578125q1.4375 -0.9375 3.109375 -0.9375q2.75 0 4.265625 1.8125q1.53125 1.8125 1.53125 5.171875l0 1.0l-9.53125 0q0.046875 2.09375 1.203125 3.375q1.171875 1.28125 2.96875 1.28125q1.28125 0 2.15625 -0.515625q0.890625 -0.53125 1.546875 -1.390625l1.484375 1.15625q-1.78125 2.71875 -5.3125 2.71875zm-0.3125 -12.625q-1.453125 0 -2.4375 1.0625q-0.984375 1.046875 -1.21875 2.96875l7.046875 0l0 -0.1875q-0.109375 -1.828125 -1.0 -2.828125q-0.875 -1.015625 -2.390625 -1.015625z" fill-rule="nonzero"/><path fill="#000000" d="m1218.8342 656.78613l0 1.359375l-0.296875 0q-1.875 0.03125 -2.984375 1.109375q-1.109375 1.078125 -1.28125 3.03125q1.0 -1.140625 2.734375 -1.140625q1.640625 0 2.625 1.171875q0.984375 1.15625 0.984375 2.984375q0 1.953125 -1.0625 3.125q-1.0625 1.171875 -2.84375 1.171875q-1.8125 0 -2.953125 -1.390625q-1.125 -1.390625 -1.125 -3.59375l0 -0.609375q0 -3.484375 1.484375 -5.328125q1.5 -1.84375 4.4375 -1.890625l0.28125 0zm-2.109375 5.6875q-0.8125 0 -1.515625 0.5q-0.6875 0.5 -0.953125 1.234375l0 0.59375q0 1.5625 0.6875 2.515625q0.703125 0.953125 1.765625 0.953125q1.078125 0 1.6875 -0.796875q0.625 -0.796875 0.625 -2.09375q0 -1.296875 -0.625 -2.09375q-0.625 -0.8125 -1.671875 -0.8125z" fill-rule="nonzero"/><path fill="#000000" fill-opacity="0.0" d="m744.0105 616.0315l0 -61.480286" fill-rule="evenodd"/><path stroke="#000000" stroke-width="2.0" stroke-linejoin="round" stroke-linecap="butt" d="m744.0105 616.0315l0 -49.480286" fill-rule="evenodd"/><path fill="#000000" stroke="#000000" stroke-width="2.0" stroke-linecap="butt" d="m747.31396 566.5512l-3.3034668 -9.076233l-3.3034668 9.076233z" fill-rule="evenodd"/><path fill="#000000" fill-opacity="0.0" d="m976.2677 616.0315l0.440979 -61.480286" fill-rule="evenodd"/><path stroke="#000000" stroke-width="2.0" stroke-linejoin="round" stroke-linecap="butt" d="m976.2677 616.0315l0.35491943 -49.48065" fill-rule="evenodd"/><path fill="#000000" stroke="#000000" stroke-width="2.0" stroke-linecap="butt" d="m979.92596 566.5746l-3.2382812 -9.09967l-3.3684692 9.052246z" fill-rule="evenodd"/><path fill="#000000" fill-opacity="0.0" d="m1209.4174 616.0315l0 -61.480286" fill-rule="evenodd"/><path stroke="#000000" stroke-width="2.0" stroke-linejoin="round" stroke-linecap="butt" d="m1209.4174 616.0315l0 -49.480286" fill-rule="evenodd"/><path fill="#000000" stroke="#000000" stroke-width="2.0" stroke-linecap="butt" d="m1212.7208 566.5512l-3.3034668 -9.076233l-3.3034668 9.076233z" fill-rule="evenodd"/><path fill="#000000" fill-opacity="0.0" d="m959.6063 16.125984l33.322815 0l0 42.015747l-33.322815 0z" fill-rule="evenodd"/><path fill="#000000" d="m975.24695 43.045982l-1.6875 0l0 -11.234375l-3.40625 1.25l0 -1.53125l4.828125 -1.8125l0.265625 0l0 13.328125z" fill-rule="nonzero"/><path fill="#000000" fill-opacity="0.0" d="m339.5223 223.80577l404.50394 211.40157" fill-rule="evenodd"/><path stroke="#000000" stroke-width="3.0" stroke-linejoin="round" stroke-linecap="butt" d="m339.5223 223.80577l388.55118 203.06435" fill-rule="evenodd"/><path fill="#000000" stroke="#000000" stroke-width="3.0" stroke-linecap="butt" d="m725.7783 431.26175l14.361023 1.9142456l-9.770691 -10.697479z" fill-rule="evenodd"/><path fill="#000000" fill-opacity="0.0" d="m339.5223 223.80577l637.1969 211.40157" fill-rule="evenodd"/><path stroke="#000000" stroke-width="3.0" stroke-linejoin="round" stroke-linecap="butt" d="m339.5223 223.80577l620.11255 205.73357" fill-rule="evenodd"/><path fill="#000000" stroke="#000000" stroke-width="3.0" stroke-linecap="butt" d="m958.0745 434.24243l14.482056 -0.41610718l-11.361389 -8.990112z" fill-rule="evenodd"/><path fill="#000000" fill-opacity="0.0" d="m339.5223 223.80577l869.8898 211.40157" fill-rule="evenodd"/><path stroke="#000000" stroke-width="3.0" stroke-linejoin="round" stroke-linecap="butt" d="m339.5223 223.80577l852.3988 207.15092" fill-rule="evenodd"/><path fill="#000000" stroke="#000000" stroke-width="3.0" stroke-linecap="butt" d="m1190.751 435.77173l14.399414 -1.6000671l-12.059082 -8.030029z" fill-rule="evenodd"/><path fill="#000000" fill-opacity="0.0" d="m976.7139 223.80577l-869.8898 211.40157" fill-rule="evenodd"/><path stroke="#000000" stroke-width="3.0" stroke-linejoin="round" stroke-linecap="butt" d="m976.7139 223.80577l-852.39886 207.15092" fill-rule="evenodd"/><path fill="#000000" stroke="#000000" stroke-width="3.0" stroke-linecap="butt" d="m123.1449 426.14163l-12.059082 8.030029l14.399399 1.6000671z" fill-rule="evenodd"/><path fill="#000000" fill-opacity="0.0" d="m976.7139 223.80577l-637.1969 211.40157" fill-rule="evenodd"/><path stroke="#000000" stroke-width="3.0" stroke-linejoin="round" stroke-linecap="butt" d="m976.7139 223.80577l-620.11255 205.73357" fill-rule="evenodd"/><path fill="#000000" stroke="#000000" stroke-width="3.0" stroke-linecap="butt" d="m355.04102 424.8362l-11.361359 8.990112l14.482056 0.41610718z" fill-rule="evenodd"/><path fill="#000000" fill-opacity="0.0" d="m976.7139 223.80577l-404.50397 211.40157" fill-rule="evenodd"/><path stroke="#000000" stroke-width="3.0" stroke-linejoin="round" stroke-linecap="butt" d="m976.7139 223.80577l-388.5512 203.06435" fill-rule="evenodd"/><path fill="#000000" stroke="#000000" stroke-width="3.0" stroke-linecap="butt" d="m585.8676 422.47852l-9.770752 10.697479l14.361023 -1.9142456z" fill-rule="evenodd"/></g></svg>